<svg width="182" height="88" viewBox="0 0 182 88" fill="none" xmlns="http://www.w3.org/2000/svg">
<g id="apple-play">
<g id="apple-play_2">
<g id="Rectangle 2120" filter="url(#filter0_d_343_1139)">
<rect x="16" y="13" width="150" height="56" rx="8" fill="#FBFFF5"/>
</g>
</g>
<g id="apple-play_3">
<text id="Apple Pay" fill="#1A1C15" xml:space="preserve" style="white-space: pre" font-family="Red Hat Display" font-size="16" letter-spacing="0em"><tspan x="70" y="46.704">Apple Pay</tspan></text>
<path id="Vector" d="M54.2784 37.358C53.8054 37.321 53.2974 37.434 52.5194 37.731C52.5854 37.706 51.7774 38.021 51.5514 38.101C51.0494 38.276 50.6364 38.372 50.1734 38.372C49.7154 38.372 49.2934 38.28 48.8074 38.117C48.6524 38.064 48.4964 38.007 48.3024 37.931C48.2204 37.899 47.9204 37.779 47.8544 37.754C47.2064 37.5 46.8414 37.404 46.5384 37.412C45.3864 37.427 44.2954 38.092 43.6624 39.194C42.3704 41.438 43.0854 45.493 44.9744 48.225C45.9804 49.669 46.5304 50.185 46.7524 50.178C46.9744 50.168 47.1374 50.121 47.5354 49.953L47.7024 49.882C48.7074 49.453 49.4124 49.264 50.4734 49.264C51.4944 49.264 52.1764 49.45 53.1414 49.866L53.3094 49.938C53.7074 50.108 53.8514 50.146 54.1014 50.14C54.4594 50.135 54.9004 49.723 55.8794 48.286C56.1474 47.895 56.3844 47.483 56.5894 47.066C56.4546 46.955 56.3239 46.8393 56.1974 46.719C54.9084 45.491 54.1114 43.835 54.0894 41.789C54.0678 40.2752 54.5654 38.7996 55.4994 37.608C55.1074 37.4633 54.6957 37.379 54.2784 37.358ZM54.4334 35.364C55.1414 35.412 57.1694 35.628 58.4894 37.56C58.3814 37.62 56.0654 38.964 56.0894 41.772C56.1254 45.132 59.0294 46.248 59.0654 46.26C59.0414 46.344 58.5974 47.856 57.5294 49.416C56.6054 50.772 55.6454 52.116 54.1334 52.14C52.6454 52.176 52.1654 51.264 50.4734 51.264C48.7694 51.264 48.2414 52.116 46.8374 52.176C45.3734 52.224 44.2694 50.712 43.3334 49.368C41.4254 46.608 39.9734 41.592 41.9294 38.196C42.9014 36.504 44.6294 35.436 46.5134 35.412C47.9414 35.376 49.2974 36.372 50.1734 36.372C51.0374 36.372 52.5854 35.22 54.4334 35.364ZM53.2934 33.54C52.5134 34.476 51.2414 35.208 50.0054 35.112C49.8374 33.84 50.4614 32.508 51.1814 31.68C51.9854 30.744 53.3294 30.048 54.4454 30C54.5894 31.296 54.0734 32.604 53.2934 33.54Z" fill="#65744D"/>
</g>
</g>
<defs>
<filter id="filter0_d_343_1139" x="0" y="0" width="182" height="88" filterUnits="userSpaceOnUse" color-interpolation-filters="sRGB">
<feFlood flood-opacity="0" result="BackgroundImageFix"/>
<feColorMatrix in="SourceAlpha" type="matrix" values="0 0 0 0 0 0 0 0 0 0 0 0 0 0 0 0 0 0 127 0" result="hardAlpha"/>
<feOffset dy="3"/>
<feGaussianBlur stdDeviation="8"/>
<feComposite in2="hardAlpha" operator="out"/>
<feColorMatrix type="matrix" values="0 0 0 0 0.170703 0 0 0 0 0.25 0 0 0 0 0.0385417 0 0 0 0.2 0"/>
<feBlend mode="normal" in2="BackgroundImageFix" result="effect1_dropShadow_343_1139"/>
<feBlend mode="normal" in="SourceGraphic" in2="effect1_dropShadow_343_1139" result="shape"/>
</filter>
</defs>
</svg>
