<svg width="127" height="126" viewBox="0 0 127 126" fill="none" xmlns="http://www.w3.org/2000/svg">
<g id="Group 27584">
<g id="Ellipse 2477" filter="url(#filter0_b_332_1357)">
<circle cx="63.5786" cy="62.9833" r="62.7739" fill="#E8EDDF" fill-opacity="0.05"/>
<circle cx="63.5786" cy="62.9833" r="62.3468" stroke="#FBFFF5" stroke-width="0.854066"/>
</g>
<g id="Ellipse 2478" filter="url(#filter1_b_332_1357)">
<circle cx="63.5782" cy="62.9835" r="31.1734" fill="#E8EDDF"/>
</g>
<path id="Star 25" d="M62.7774 48.4987C63.0523 47.7545 64.1049 47.7545 64.3798 48.4987L65.7465 52.1991C65.9507 52.752 66.6403 52.9367 67.0936 52.56L70.1274 50.0388C70.7375 49.5317 71.6491 50.058 71.515 50.8399L70.8485 54.7279C70.7489 55.3088 71.2537 55.8136 71.8346 55.714L75.7226 55.0475C76.5045 54.9134 77.0308 55.825 76.5237 56.4351L74.0025 59.4689C73.6258 59.9222 73.8105 60.6118 74.3634 60.816L78.0638 62.1827C78.808 62.4576 78.808 63.5102 78.0638 63.785L74.3634 65.1518C73.8105 65.356 73.6258 66.0455 74.0025 66.4988L76.5237 69.5326C77.0308 70.1428 76.5045 71.0544 75.7226 70.9203L71.8346 70.2537C71.2537 70.1542 70.7489 70.6589 70.8485 71.2398L71.515 75.1278C71.6491 75.9098 70.7375 76.4361 70.1274 75.929L67.0935 73.4077C66.6403 73.031 65.9507 73.2158 65.7465 73.7687L64.3798 77.4691C64.1049 78.2133 63.0523 78.2133 62.7774 77.4691L61.4107 73.7687C61.2065 73.2158 60.5169 73.031 60.0637 73.4077L57.0299 75.929C56.4197 76.4361 55.5081 75.9098 55.6422 75.1278L56.3088 71.2398C56.4083 70.6589 55.9035 70.1542 55.3227 70.2537L51.4347 70.9203C50.6527 71.0544 50.1264 70.1428 50.6335 69.5326L53.1548 66.4988C53.5314 66.0455 53.3467 65.356 52.7938 65.1518L49.0934 63.785C48.3492 63.5102 48.3492 62.4576 49.0934 62.1827L52.7938 60.816C53.3467 60.6118 53.5314 59.9222 53.1548 59.4689L50.6335 56.4351C50.1264 55.825 50.6527 54.9134 51.4347 55.0475L55.3227 55.714C55.9035 55.8136 56.4083 55.3088 56.3088 54.7279L55.6422 50.8399C55.5081 50.058 56.4197 49.5317 57.0299 50.0388L60.0637 52.56C60.5169 52.9367 61.2065 52.752 61.4107 52.1991L62.7774 48.4987Z" fill="url(#paint0_linear_332_1357)"/>
<g id="Linked Path Group">
<text id="[Copy] CURSO ONLINE &#226;&#128;&#162; criatividade &#226;&#128;&#162;" transform="translate(120.089 64.7627) rotate(98.8247)" fill="#E7E4F2" xml:space="preserve" style="white-space: pre" font-family="Oxanium" font-size="13.6651" font-weight="300" letter-spacing="0.16em"><tspan x="0" y="12.9629">M</tspan></text>
<text id="[Copy] CURSO ONLINE &#226;&#128;&#162; criatividade &#226;&#128;&#162;_2" transform="translate(116.903 81.4814) rotate(114.635)" fill="#E7E4F2" xml:space="preserve" style="white-space: pre" font-family="Oxanium" font-size="13.6651" font-weight="300" letter-spacing="0.16em"><tspan x="0" y="12.9629">A</tspan></text>
<text id="[Copy] CURSO ONLINE &#226;&#128;&#162; criatividade &#226;&#128;&#162;_3" transform="translate(111.152 93.3262) rotate(127.706)" fill="#E7E4F2" xml:space="preserve" style="white-space: pre" font-family="Oxanium" font-size="13.6651" font-weight="300" letter-spacing="0.16em"><tspan x="0" y="12.9629">T</tspan></text>
<text id="[Copy] CURSO ONLINE &#226;&#128;&#162; criatividade &#226;&#128;&#162;_4" transform="translate(103.492 102.87) rotate(140.207)" fill="#E7E4F2" xml:space="preserve" style="white-space: pre" font-family="Oxanium" font-size="13.6651" font-weight="300" letter-spacing="0.16em"><tspan x="0" y="12.9629">E</tspan></text>
<text id="[Copy] CURSO ONLINE &#226;&#128;&#162; criatividade &#226;&#128;&#162;_5" transform="translate(93.8994 110.604) rotate(153.237)" fill="#E7E4F2" xml:space="preserve" style="white-space: pre" font-family="Oxanium" font-size="13.6651" font-weight="300" letter-spacing="0.16em"><tspan x="0" y="12.9629">R</tspan></text>
<text id="[Copy] CURSO ONLINE &#226;&#128;&#162; criatividade &#226;&#128;&#162;_6" transform="translate(82.3389 115.984) rotate(163.752)" fill="#E7E4F2" xml:space="preserve" style="white-space: pre" font-family="Oxanium" font-size="13.6651" font-weight="300" letter-spacing="0.16em"><tspan x="0" y="12.9629">I</tspan></text>
<text id="[Copy] CURSO ONLINE &#226;&#128;&#162; criatividade &#226;&#128;&#162;_7" transform="translate(75.0015 118.185) rotate(174.256)" fill="#E7E4F2" xml:space="preserve" style="white-space: pre" font-family="Oxanium" font-size="13.6651" font-weight="300" letter-spacing="0.16em"><tspan x="0" y="12.9629">A</tspan></text>
<text id="[Copy] CURSO ONLINE &#226;&#128;&#162; criatividade &#226;&#128;&#162;_8" transform="translate(61.6548 119.193) rotate(-172.494)" fill="#E7E4F2" xml:space="preserve" style="white-space: pre" font-family="Oxanium" font-size="13.6651" font-weight="300" letter-spacing="0.16em"><tspan x="0" y="12.9629">L</tspan></text>
<text id="[Copy] CURSO ONLINE &#226;&#128;&#162; criatividade &#226;&#128;&#162;_9" transform="translate(42.7939 115.084) rotate(-152.6)" fill="#E7E4F2" xml:space="preserve" style="white-space: pre" font-family="Oxanium" font-size="13.6651" font-weight="300" letter-spacing="0.16em"><tspan x="0" y="12.9629">T</tspan></text>
<text id="[Copy] CURSO ONLINE &#226;&#128;&#162; criatividade &#226;&#128;&#162;_10" transform="translate(32.0464 109.235) rotate(-139.999)" fill="#E7E4F2" xml:space="preserve" style="white-space: pre" font-family="Oxanium" font-size="13.6651" font-weight="300" letter-spacing="0.16em"><tspan x="0" y="12.9629">E</tspan></text>
<text id="[Copy] CURSO ONLINE &#226;&#128;&#162; criatividade &#226;&#128;&#162;_11" transform="translate(22.8423 101.208) rotate(-127.497)" fill="#E7E4F2" xml:space="preserve" style="white-space: pre" font-family="Oxanium" font-size="13.6651" font-weight="300" letter-spacing="0.16em"><tspan x="0" y="12.9629">S</tspan></text>
<text id="[Copy] CURSO ONLINE &#226;&#128;&#162; criatividade &#226;&#128;&#162;_12" transform="translate(15.561 91.3359) rotate(-114.849)" fill="#E7E4F2" xml:space="preserve" style="white-space: pre" font-family="Oxanium" font-size="13.6651" font-weight="300" letter-spacing="0.16em"><tspan x="0" y="12.9629">T</tspan></text>
<text id="[Copy] CURSO ONLINE &#226;&#128;&#162; criatividade &#226;&#128;&#162;_13" transform="translate(10.5601 80.0723) rotate(-101.674)" fill="#E7E4F2" xml:space="preserve" style="white-space: pre" font-family="Oxanium" font-size="13.6651" font-weight="300" letter-spacing="0.16em"><tspan x="0" y="12.9629">A</tspan></text>
<text id="[Copy] CURSO ONLINE &#226;&#128;&#162; criatividade &#226;&#128;&#162;_14" transform="translate(8.0708 66.6953) rotate(-87.3467)" fill="#E7E4F2" xml:space="preserve" style="white-space: pre" font-family="Oxanium" font-size="13.6651" font-weight="300" letter-spacing="0.16em"><tspan x="0" y="12.9629">D</tspan></text>
<text id="[Copy] CURSO ONLINE &#226;&#128;&#162; criatividade &#226;&#128;&#162;_15" transform="translate(9.02344 52.4497) rotate(-72.6685)" fill="#E7E4F2" xml:space="preserve" style="white-space: pre" font-family="Oxanium" font-size="13.6651" font-weight="300" letter-spacing="0.16em"><tspan x="0" y="12.9629">O</tspan></text>
<text id="[Copy] CURSO ONLINE &#226;&#128;&#162; criatividade &#226;&#128;&#162;_16" transform="translate(16.937 33.2646) rotate(-53.3395)" fill="#E7E4F2" xml:space="preserve" style="white-space: pre" font-family="Oxanium" font-size="13.6651" font-weight="300" letter-spacing="0.16em"><tspan x="0" y="12.9629">&#x2022;</tspan></text>
<text id="[Copy] CURSO ONLINE &#226;&#128;&#162; criatividade &#226;&#128;&#162;_17" transform="translate(27.7563 20.666) rotate(-34.5667)" fill="#E7E4F2" xml:space="preserve" style="white-space: pre" font-family="Oxanium" font-size="13.6651" font-weight="300" letter-spacing="0.16em"><tspan x="0" y="12.9629">A</tspan></text>
<text id="[Copy] CURSO ONLINE &#226;&#128;&#162; criatividade &#226;&#128;&#162;_18" transform="translate(39.0107 13.2427) rotate(-20.7822)" fill="#E7E4F2" xml:space="preserve" style="white-space: pre" font-family="Oxanium" font-size="13.6651" font-weight="300" letter-spacing="0.16em"><tspan x="0" y="12.9629">P</tspan></text>
<text id="[Copy] CURSO ONLINE &#226;&#128;&#162; criatividade &#226;&#128;&#162;_19" transform="translate(51.1616 8.83936) rotate(-7.28563)" fill="#E7E4F2" xml:space="preserve" style="white-space: pre" font-family="Oxanium" font-size="13.6651" font-weight="300" letter-spacing="0.16em"><tspan x="0" y="12.9629">R</tspan></text>
<text id="[Copy] CURSO ONLINE &#226;&#128;&#162; criatividade &#226;&#128;&#162;_20" transform="translate(64.8628 7.34229) rotate(7.06552)" fill="#E7E4F2" xml:space="preserve" style="white-space: pre" font-family="Oxanium" font-size="13.6651" font-weight="300" letter-spacing="0.16em"><tspan x="0" y="12.9629">O</tspan></text>
<text id="[Copy] CURSO ONLINE &#226;&#128;&#162; criatividade &#226;&#128;&#162;_21" transform="translate(78.8042 9.3623) rotate(21.2119)" fill="#E7E4F2" xml:space="preserve" style="white-space: pre" font-family="Oxanium" font-size="13.6651" font-weight="300" letter-spacing="0.16em"><tspan x="0" y="12.9629">V</tspan></text>
<text id="[Copy] CURSO ONLINE &#226;&#128;&#162; criatividade &#226;&#128;&#162;_22" transform="translate(91.2773 14.4937) rotate(34.9859)" fill="#E7E4F2" xml:space="preserve" style="white-space: pre" font-family="Oxanium" font-size="13.6651" font-weight="300" letter-spacing="0.16em"><tspan x="0" y="12.9629">A</tspan></text>
<text id="[Copy] CURSO ONLINE &#226;&#128;&#162; criatividade &#226;&#128;&#162;_23" transform="translate(101.988 22.2241) rotate(48.9566)" fill="#E7E4F2" xml:space="preserve" style="white-space: pre" font-family="Oxanium" font-size="13.6651" font-weight="300" letter-spacing="0.16em"><tspan x="0" y="12.9629">D</tspan></text>
<text id="[Copy] CURSO ONLINE &#226;&#128;&#162; criatividade &#226;&#128;&#162;_24" transform="translate(111.215 33.2754) rotate(63.6616)" fill="#E7E4F2" xml:space="preserve" style="white-space: pre" font-family="Oxanium" font-size="13.6651" font-weight="300" letter-spacing="0.16em"><tspan x="0" y="12.9629">O</tspan></text>
<text id="[Copy] CURSO ONLINE &#226;&#128;&#162; criatividade &#226;&#128;&#162;_25" transform="translate(118.779 52.8169) rotate(83.1546)" fill="#E7E4F2" xml:space="preserve" style="white-space: pre" font-family="Oxanium" font-size="13.6651" font-weight="300" letter-spacing="0.16em"><tspan x="0" y="12.9629">&#x2022;</tspan></text>
</g>
</g>
<defs>
<filter id="filter0_b_332_1357" x="-19.6929" y="-20.2881" width="166.543" height="166.543" filterUnits="userSpaceOnUse" color-interpolation-filters="sRGB">
<feFlood flood-opacity="0" result="BackgroundImageFix"/>
<feGaussianBlur in="BackgroundImageFix" stdDeviation="10.2488"/>
<feComposite in2="SourceAlpha" operator="in" result="effect1_backgroundBlur_332_1357"/>
<feBlend mode="normal" in="SourceGraphic" in2="effect1_backgroundBlur_332_1357" result="shape"/>
</filter>
<filter id="filter1_b_332_1357" x="11.9072" y="11.3125" width="103.342" height="103.342" filterUnits="userSpaceOnUse" color-interpolation-filters="sRGB">
<feFlood flood-opacity="0" result="BackgroundImageFix"/>
<feGaussianBlur in="BackgroundImageFix" stdDeviation="10.2488"/>
<feComposite in2="SourceAlpha" operator="in" result="effect1_backgroundBlur_332_1357"/>
<feBlend mode="normal" in="SourceGraphic" in2="effect1_backgroundBlur_332_1357" result="shape"/>
</filter>
<linearGradient id="paint0_linear_332_1357" x1="76.5452" y1="44.7831" x2="49.3035" y2="80.8278" gradientUnits="userSpaceOnUse">
<stop stop-color="#BBE768"/>
<stop offset="1" stop-color="#496022"/>
</linearGradient>
</defs>
</svg>
