<svg width="55" height="55" viewBox="0 0 80 80" fill="none" xmlns="http://www.w3.org/2000/svg">
<g id="card-bg-key" class="card-bg-key">
<circle id="Ellipse 2507" cx="40" cy="40" r="40" fill="#FBFFF5"/>
<path id="Vector" d="M40 23L52.782 25.822C53.1274 25.8983 53.4364 26.0893 53.6578 26.3635C53.8792 26.6378 53.9999 26.9788 54 27.3304V42.7648C53.9999 44.2913 53.6205 45.7942 52.8954 47.14C52.1703 48.4859 51.122 49.633 49.8436 50.4797L40 57L30.1564 50.4797C28.8782 49.6332 27.83 48.4862 27.105 47.1407C26.3799 45.7952 26.0004 44.2926 26 42.7664V27.3304C26.0001 26.9788 26.1208 26.6378 26.3422 26.3635C26.5636 26.0893 26.8726 25.8983 27.218 25.822L40 23ZM40 26.1666L29.1111 28.5698V42.7648C29.1111 43.7824 29.364 44.7843 29.8473 45.6815C30.3306 46.5788 31.0293 47.3436 31.8816 47.9081L40 53.2863L48.1184 47.9081C48.9704 47.3437 49.6691 46.5791 50.1523 45.6822C50.6356 44.7853 50.8886 43.7837 50.8889 42.7664V28.5698L40 26.1666ZM40 32.2727C40.685 32.2724 41.3509 32.4967 41.8945 32.9108C42.438 33.3249 42.8289 33.9056 43.0063 34.5629C43.1838 35.2202 43.1379 35.9173 42.8759 36.546C42.6139 37.1748 42.1503 37.7001 41.5571 38.0404L41.5556 44.6364H38.4444V38.0404C37.8514 37.7001 37.3879 37.175 37.1258 36.5464C36.8638 35.9178 36.8178 35.2208 36.995 34.5636C37.1723 33.9064 37.5629 33.3257 38.1062 32.9115C38.6495 32.4973 39.3152 32.2728 40 32.2727Z" fill="#DCFD9E"/>
</g>
</svg>
