<svg width="55" height="55" viewBox="0 0 80 80" fill="none" xmlns="http://www.w3.org/2000/svg">
<g id="card-bg-mobile" class="card-bg-mobile">
<circle id="Ellipse 2504" cx="40" cy="40" r="40" fill="#DCFD9E"/>
<path id="Vector" d="M32.1429 28.1V52.9H47.8571V28.1H32.1429ZM30.5714 25H49.4286C49.8453 25 50.245 25.1633 50.5397 25.454C50.8344 25.7447 51 26.1389 51 26.55V54.45C51 54.8611 50.8344 55.2553 50.5397 55.546C50.245 55.8367 49.8453 56 49.4286 56H30.5714C30.1547 56 29.755 55.8367 29.4603 55.546C29.1656 55.2553 29 54.8611 29 54.45V26.55C29 26.1389 29.1656 25.7447 29.4603 25.454C29.755 25.1633 30.1547 25 30.5714 25ZM40 48.25C40.4168 48.25 40.8165 48.4133 41.1112 48.704C41.4059 48.9947 41.5714 49.3889 41.5714 49.8C41.5714 50.2111 41.4059 50.6053 41.1112 50.896C40.8165 51.1867 40.4168 51.35 40 51.35C39.5832 51.35 39.1835 51.1867 38.8888 50.896C38.5941 50.6053 38.4286 50.2111 38.4286 49.8C38.4286 49.3889 38.5941 48.9947 38.8888 48.704C39.1835 48.4133 39.5832 48.25 40 48.25Z" fill="#515D3D"/>
</g>
</svg>
