<svg width="55" height="55" viewBox="0 0 80 80" fill="none" xmlns="http://www.w3.org/2000/svg">
<g id="card-bg-phone" class="card-bg-phone">
<circle id="Ellipse 2507" cx="40" cy="40" r="40" fill="#FBFFF5"/>
<path id="Vector" d="M56 47.4496C55.9993 49.6784 55.2514 51.8401 53.88 53.5769C52.5087 55.3137 50.5962 56.5213 48.4592 57L47.4384 53.8806C48.3732 53.7238 49.2622 53.3577 50.0413 52.8087C50.8204 52.2598 51.4702 51.5415 51.944 50.7059H48C47.1513 50.7059 46.3374 50.3625 45.7373 49.7512C45.1371 49.1399 44.8 48.3108 44.8 47.4464V40.9273C44.8 40.0629 45.1371 39.2338 45.7373 38.6225C46.3374 38.0112 47.1513 37.6678 48 37.6678H52.7008C52.3104 34.5173 50.8047 31.6202 48.4663 29.5201C46.1279 27.42 43.1175 26.2613 40 26.2613C36.8825 26.2613 33.8721 27.42 31.5337 29.5201C29.1953 31.6202 27.6896 34.5173 27.2992 37.6678H32C32.8487 37.6678 33.6626 38.0112 34.2627 38.6225C34.8629 39.2338 35.2 40.0629 35.2 40.9273V47.4464C35.2 48.3108 34.8629 49.1399 34.2627 49.7512C33.6626 50.3625 32.8487 50.7059 32 50.7059H27.2C26.3513 50.7059 25.5374 50.3625 24.9373 49.7512C24.3371 49.1399 24 48.3108 24 47.4464V39.2976C24 30.2964 31.1632 23 40 23C48.8368 23 56 30.2964 56 39.2976V47.4496ZM52.8 47.4464V40.9273H48V47.4464H52.8ZM27.2 40.9273V47.4464H32V40.9273H27.2Z" fill="#DCFD9E"/>
</g>
</svg>
