<svg width="60" height="60" viewBox="0 0 60 60" fill="none" xmlns="http://www.w3.org/2000/svg">
<g id="card-diamant-bg" class="card-diamant-bg">
<circle id="Ellipse 2482" cx="30" cy="30" r="30" fill="#A9C96B" fill-opacity="0.4"/>
<path id="Vector" d="M22.7275 21H36.9815C37.1393 21 37.2949 21.0373 37.4355 21.1089C37.5761 21.1805 37.6977 21.2844 37.7905 21.412L41.6135 26.668C41.6815 26.7615 41.7149 26.8757 41.7082 26.9911C41.7015 27.1065 41.6549 27.216 41.5765 27.301L30.2215 39.602C30.1316 39.6992 30.0067 39.7568 29.8743 39.7621C29.7419 39.7673 29.6129 39.7198 29.5155 39.63C29.5085 39.624 25.7155 35.515 18.1325 27.301C18.0541 27.216 18.0076 27.1065 18.0009 26.9911C17.9941 26.8757 18.0276 26.7615 18.0955 26.668L21.9185 21.412C22.0113 21.2844 22.133 21.1805 22.2736 21.1089C22.4142 21.0373 22.5697 21 22.7275 21ZM23.2375 23L20.4375 26.85L29.8545 37.05L39.2715 26.85L36.4715 23H23.2375Z" fill="#515D3D"/>
</g>
</svg>
