<svg width="55" height="55" viewBox="0 0 80 80" fill="none" xmlns="http://www.w3.org/2000/svg">
<g id="card-bg-cart" class="card-bg-cart">
<circle id="Ellipse 2508" cx="40" cy="40" r="40" fill="#FBFFF5"/>
<path id="Vector" d="M27.45 27H53.55C53.9346 27 54.3034 27.1522 54.5753 27.4231C54.8472 27.694 55 28.0614 55 28.4444V51.5556C55 51.9386 54.8472 52.306 54.5753 52.5769C54.3034 52.8478 53.9346 53 53.55 53H27.45C27.0654 53 26.6966 52.8478 26.4247 52.5769C26.1528 52.306 26 51.9386 26 51.5556V28.4444C26 28.0614 26.1528 27.694 26.4247 27.4231C26.6966 27.1522 27.0654 27 27.45 27ZM52.1 38.5556H28.9V50.1111H52.1V38.5556ZM52.1 35.6667V29.8889H28.9V35.6667H52.1ZM43.4 44.3333H49.2V47.2222H43.4V44.3333Z" fill="#DCFD9E"/>
</g>
</svg>
