<svg width="55" height="55" viewBox="0 0 80 80" fill="none" xmlns="http://www.w3.org/2000/svg">
<g id="card-bg-dgital" class="card-bg-dgital">
<circle id="Ellipse 2506" cx="40" cy="40" r="40" fill="#FBFFF5"/>
<path id="Vector" d="M48.566 41.369V42.948C48.566 47.3218 47.498 51.5456 45.4858 55.3368L45.1206 56L42.3106 54.4621C44.1765 51.1777 45.222 47.4987 45.3378 43.668L45.349 42.948V41.369H48.566ZM38.9151 36.632H42.1321V42.948L42.124 43.5464C42.0024 47.8692 40.4869 52.0427 37.7956 55.4663L37.424 55.9242L34.9308 53.9284C37.386 50.9849 38.7831 47.3283 38.9054 43.5259L38.9151 42.948V36.632ZM40.5236 30.316C42.6566 30.316 44.7022 31.1478 46.2104 32.6284C47.7187 34.109 48.566 36.1171 48.566 38.211H45.349C45.349 36.9547 44.8406 35.7498 43.9357 34.8614C43.0307 33.9731 41.8034 33.474 40.5236 33.474C39.2438 33.474 38.0164 33.9731 37.1114 34.8614C36.2065 35.7498 35.6981 36.9547 35.6981 38.211V42.948C35.6981 46.4771 34.3791 49.8072 32.0452 52.3857L31.7042 52.7488L29.3751 50.5698C31.257 48.637 32.3576 46.0978 32.4714 43.4264L32.4811 42.948V38.211C32.4811 36.1171 33.3284 34.109 34.8367 32.6284C36.3449 31.1478 38.3906 30.316 40.5236 30.316ZM40.5236 24C44.363 24 48.0451 25.4972 50.7599 28.1623C53.4748 30.8274 55 34.442 55 38.211V42.948C55 45.6291 54.6751 48.2692 54.0397 50.8272L53.8161 51.6783L50.7118 50.8477C51.3423 48.5787 51.6978 46.2339 51.7701 43.8449L51.783 42.948V38.211C51.783 36.1597 51.2015 34.1488 50.1035 32.4035C49.0056 30.6581 47.4345 29.2471 45.5661 28.3284C43.6978 27.4097 41.6058 27.0196 39.5244 27.2016C37.443 27.3836 35.4543 28.1307 33.7808 29.3591L31.4887 27.1075C34.0518 25.0915 37.2393 23.9952 40.5236 24ZM29.2126 29.3418L31.5064 31.5918C30.1268 33.397 29.3462 35.575 29.2705 37.8305L29.2641 38.211L29.2705 41.369C29.2705 43.1375 28.8459 44.8475 28.0449 46.3855L27.794 46.8434L25 45.277C25.6112 44.227 25.9683 43.0554 26.0391 41.8301L26.0536 41.369V38.211C26.044 34.9872 27.1588 31.8573 29.2126 29.3418Z" fill="#DCFD9E"/>
</g>
</svg>
