<svg width="67" height="68" viewBox="0 0 67 68" fill="none" xmlns="http://www.w3.org/2000/svg">
<g id="Group 27583">
<circle id="Ellipse 2514" cx="33.5083" cy="33.9516" r="33.1636" fill="#FBFFF5"/>
<path id="Vector" d="M23.1031 23.1733H44.7423C45.0611 23.1733 45.3669 23.2995 45.5923 23.5241C45.8178 23.7487 45.9445 24.0533 45.9445 24.3709V43.5321C45.9445 43.8497 45.8178 44.1543 45.5923 44.3789C45.3669 44.6035 45.0611 44.7297 44.7423 44.7297H23.1031C22.7842 44.7297 22.4784 44.6035 22.253 44.3789C22.0275 44.1543 21.9009 43.8497 21.9009 43.5321V24.3709C21.9009 24.0533 22.0275 23.7487 22.253 23.5241C22.4784 23.2995 22.7842 23.1733 23.1031 23.1733ZM43.5401 32.7539H24.3052V42.3345H43.5401V32.7539ZM43.5401 30.3588V25.5685H24.3052V30.3588H43.5401ZM36.327 37.5442H41.1357V39.9394H36.327V37.5442Z" fill="#849170"/>
</g>
</svg>
