<svg width="399" height="726" viewBox="0 0 399 726" fill="none" xmlns="http://www.w3.org/2000/svg">
<g id="celular-card-bg">
<g id="Group 27529">
<rect id="Rectangle 428" x="31" y="40" width="328" height="686" rx="48" fill="#2F3329"/>
<rect id="Rectangle 430" x="178" y="43" width="36" height="3" rx="1.5" fill="#C0C0C0"/>
<rect id="Rectangle 3584" x="41" y="49" width="309" height="667" rx="36" fill="url(#paint0_linear_341_1131)"/>
<rect id="Rectangle 3587" x="147" y="61" width="98" height="30" rx="15" fill="#2F3329"/>
</g>
<g id="Group 27620">
<circle id="Ellipse 2507" cx="40" cy="642" r="40" fill="#FBFFF5"/>
<path id="Vector" d="M47.475 628C52.1839 628 56 631.919 56 637.405C56 648.378 44.375 654.649 40.5 657C36.625 654.649 25 648.378 25 637.405C25 631.919 28.875 628 33.525 628C36.408 628 38.95 629.568 40.5 631.135C42.05 629.568 44.592 628 47.475 628ZM41.9477 652.46C43.3132 651.589 44.5455 650.722 45.6987 649.794C50.3193 646.079 52.9 642.019 52.9 637.405C52.9 633.706 50.5176 631.135 47.475 631.135C45.8072 631.135 44.003 632.029 42.6917 633.352L40.5 635.568L38.3083 633.352C36.997 632.029 35.1928 631.135 33.525 631.135C30.518 631.135 28.1 633.731 28.1 637.405C28.1 642.02 30.6823 646.079 35.2998 649.794C36.4545 650.722 37.6867 651.589 39.0523 652.459C39.5157 652.755 39.9745 653.039 40.5 653.355C41.0254 653.039 41.4842 652.755 41.9477 652.46Z" fill="#DCFD9E"/>
</g>
<g id="Group 27618">
<circle id="Ellipse 2508" cx="359" cy="252" r="40" fill="#FBFFF5"/>
<path id="Vector_2" d="M346.45 239H372.55C372.935 239 373.303 239.152 373.575 239.423C373.847 239.694 374 240.061 374 240.444V263.556C374 263.939 373.847 264.306 373.575 264.577C373.303 264.848 372.935 265 372.55 265H346.45C346.065 265 345.697 264.848 345.425 264.577C345.153 264.306 345 263.939 345 263.556V240.444C345 240.061 345.153 239.694 345.425 239.423C345.697 239.152 346.065 239 346.45 239ZM371.1 250.556H347.9V262.111H371.1V250.556ZM371.1 247.667V241.889H347.9V247.667H371.1ZM362.4 256.333H368.2V259.222H362.4V256.333Z" fill="#DCFD9E"/>
</g>
<g id="Group 27617">
<circle id="Ellipse 2507_2" cx="96" cy="40" r="40" fill="#FBFFF5"/>
<path id="Vector_3" d="M96 23L108.782 25.822C109.127 25.8983 109.436 26.0893 109.658 26.3635C109.879 26.6378 110 26.9788 110 27.3304V42.7648C110 44.2913 109.62 45.7942 108.895 47.14C108.17 48.4859 107.122 49.633 105.844 50.4797L96 57L86.1564 50.4797C84.8782 49.6332 83.83 48.4862 83.105 47.1407C82.3799 45.7952 82.0004 44.2926 82 42.7664V27.3304C82.0001 26.9788 82.1208 26.6378 82.3422 26.3635C82.5636 26.0893 82.8726 25.8983 83.218 25.822L96 23ZM96 26.1666L85.1111 28.5698V42.7648C85.1111 43.7824 85.364 44.7843 85.8473 45.6815C86.3306 46.5788 87.0293 47.3436 87.8816 47.9081L96 53.2863L104.118 47.9081C104.97 47.3437 105.669 46.5791 106.152 45.6822C106.636 44.7853 106.889 43.7837 106.889 42.7664V28.5698L96 26.1666ZM96 32.2727C96.685 32.2724 97.3509 32.4967 97.8945 32.9108C98.438 33.3249 98.8289 33.9056 99.0063 34.5629C99.1838 35.2202 99.1379 35.9173 98.8759 36.546C98.6139 37.1748 98.1503 37.7001 97.5571 38.0404L97.5556 44.6364H94.4444V38.0404C93.8514 37.7001 93.3879 37.175 93.1258 36.5464C92.8638 35.9178 92.8178 35.2208 92.995 34.5636C93.1723 33.9064 93.5629 33.3257 94.1062 32.9115C94.6495 32.4973 95.3152 32.2728 96 32.2727Z" fill="#DCFD9E"/>
</g>
</g>
<defs>
<linearGradient id="paint0_linear_341_1131" x1="315.789" y1="18.0322" x2="-189.508" y2="327.764" gradientUnits="userSpaceOnUse">
<stop stop-color="#BBE768"/>
<stop offset="1" stop-color="#496022"/>
</linearGradient>
</defs>
</svg>
