<svg width="67" height="67" viewBox="0 0 67 67" fill="none" xmlns="http://www.w3.org/2000/svg">
<g id="Group 27581">
<circle id="Ellipse 2512" cx="33.1548" cy="33.7627" r="33.1636" fill="#DCFD9E"/>
<path id="Vector" d="M39.961 35.2062V36.3926C39.961 39.6789 39.164 42.8525 37.6625 45.701L37.3901 46.1993L35.2933 45.0438C36.6855 42.5761 37.4657 39.8118 37.5521 36.9336L37.5605 36.3926V35.2062H39.961ZM32.7596 31.647H35.1601V36.3926L35.1541 36.8422C35.0633 40.0902 33.9325 43.226 31.9243 45.7983L31.647 46.1424L29.7867 44.6428C31.6187 42.4312 32.6612 39.6838 32.7524 36.8268L32.7596 36.3926V31.647ZM33.9598 26.9014C35.5514 26.9014 37.0778 27.5263 38.2033 28.6388C39.3287 29.7513 39.961 31.2601 39.961 32.8334H37.5605C37.5605 31.8894 37.1812 30.9841 36.5059 30.3166C35.8306 29.6492 34.9148 29.2742 33.9598 29.2742C33.0049 29.2742 32.089 29.6492 31.4138 30.3166C30.7385 30.9841 30.3592 31.8894 30.3592 32.8334V36.3926C30.3592 39.0442 29.375 41.5463 27.6335 43.4837L27.379 43.7565L25.6411 42.1193C27.0453 40.6671 27.8666 38.7592 27.9515 36.752L27.9587 36.3926V32.8334C27.9587 31.2601 28.591 29.7513 29.7164 28.6388C30.8418 27.5263 32.3682 26.9014 33.9598 26.9014ZM33.9598 22.1558C36.8247 22.1558 39.5723 23.2807 41.598 25.2832C43.6238 27.2856 44.7619 30.0015 44.7619 32.8334V36.3926C44.7619 38.4071 44.5194 40.3907 44.0453 42.3127L43.8785 42.9522L41.5621 42.3281C42.0326 40.6233 42.2978 38.8615 42.3518 37.0664L42.3614 36.3926V32.8334C42.3614 31.2921 41.9275 29.7812 41.1082 28.4698C40.2889 27.1584 39.1166 26.0982 37.7225 25.408C36.3284 24.7177 34.7674 24.4246 33.2143 24.5613C31.6612 24.6981 30.1772 25.2594 28.9285 26.1824L27.2182 24.4906C29.1307 22.9759 31.5092 22.1522 33.9598 22.1558ZM25.5199 26.1694L27.2314 27.86C26.202 29.2163 25.6195 30.8528 25.5631 32.5474L25.5583 32.8334L25.5631 35.2062C25.5631 36.5349 25.2462 37.8198 24.6485 38.9754L24.4613 39.3194L22.3765 38.1425C22.8326 37.3535 23.099 36.4732 23.1518 35.5526L23.1626 35.2062V32.8334C23.1555 30.4111 23.9873 28.0595 25.5199 26.1694Z" fill="#65744D"/>
</g>
</svg>
