<svg width="352" height="410" viewBox="0 0 352 410" fill="none" xmlns="http://www.w3.org/2000/svg">
<g id="Frame 60" filter="url(#filter0_b_332_1335)">
<g clip-path="url(#clip0_332_1335)">
<rect width="336.523" height="232.977" rx="13.8061" transform="matrix(0.83147 0.55557 -0.308685 0.951164 72.0693 0.939453)" fill="url(#paint0_linear_332_1335)" fill-opacity="0.75"/>
<g id="Group 27542">
<text id="Warlison M Silva" transform="matrix(0.308685 -0.951164 0.83147 0.55557 195.84 320.336)" fill="#FBFFF5" xml:space="preserve" style="white-space: pre" font-family="Quicksand" font-size="13.8061" font-weight="600" letter-spacing="0.05em"><tspan x="0" y="13.6773">Warlison M Silva</tspan></text>
<path id="Vector 1931" d="M86.6125 46.244C92.8773 46.1967 96.3866 48.6635 100.603 55.5921M87.7835 50.7061C92.2841 50.6805 94.2556 52.2418 97.1105 56.9381M88.9551 55.1664C91.6349 55.0049 92.8981 56.0929 94.6948 59.0015" stroke="#E8EDDF" stroke-width="1.29432" stroke-linecap="round" stroke-linejoin="round"/>
<circle id="Ellipse 14" cx="19.7386" cy="19.7386" r="19.7386" transform="matrix(0.308685 -0.951164 0.83147 0.55557 232.072 344.545)" fill="#C0C0C0" fill-opacity="0.4"/>
<circle id="Ellipse 15" cx="19.7386" cy="19.7386" r="19.7386" transform="matrix(0.308685 -0.951164 0.83147 0.55557 239.498 321.664)" fill="#FBFFF5" fill-opacity="0.5"/>
<g id="Group 27519">
<rect id="Rectangle 28" width="13.5316" height="19.7707" rx="1.72576" transform="matrix(0.308685 -0.951164 0.62223 0.906372 41.0684 207.221)" fill="url(#paint1_linear_332_1335)"/>
<rect id="Rectangle 19" width="25.725" height="17.2281" rx="1.72576" transform="matrix(0.308685 -0.951164 0.62223 0.906372 36.5161 200.607)" fill="url(#paint2_linear_332_1335)"/>
</g>
</g>
</g>
<rect x="0.309596" y="0.892298" width="335.338" height="231.793" rx="13.2139" transform="matrix(0.83147 0.55557 -0.308685 0.951164 72.397 0.811027)" stroke="#597328" stroke-width="1.18441"/>
</g>
<defs>
<filter id="filter0_b_332_1335" x="-9.32247" y="-8.53585" width="370.676" height="427.512" filterUnits="userSpaceOnUse" color-interpolation-filters="sRGB">
<feFlood flood-opacity="0" result="BackgroundImageFix"/>
<feGaussianBlur in="BackgroundImageFix" stdDeviation="4.73765"/>
<feComposite in2="SourceAlpha" operator="in" result="effect1_backgroundBlur_332_1335"/>
<feBlend mode="normal" in="SourceGraphic" in2="effect1_backgroundBlur_332_1335" result="shape"/>
</filter>
<linearGradient id="paint0_linear_332_1335" x1="299.265" y1="-10.8168" x2="136.549" y2="300.167" gradientUnits="userSpaceOnUse">
<stop stop-color="#BBE768"/>
<stop offset="1" stop-color="#496022"/>
</linearGradient>
<linearGradient id="paint1_linear_332_1335" x1="6.76579" y1="0" x2="6.76579" y2="19.7707" gradientUnits="userSpaceOnUse">
<stop stop-color="#F3FAE6" stop-opacity="0"/>
<stop offset="1" stop-color="#F3FAE6"/>
</linearGradient>
<linearGradient id="paint2_linear_332_1335" x1="22.4966" y1="-2.38365" x2="8.79216" y2="23.3475" gradientUnits="userSpaceOnUse">
<stop stop-color="#ECF5DC"/>
<stop offset="1" stop-color="#ECF5DC" stop-opacity="0"/>
</linearGradient>
<clipPath id="clip0_332_1335">
<rect width="336.523" height="232.977" rx="13.8061" transform="matrix(0.83147 0.55557 -0.308685 0.951164 72.0693 0.939453)" fill="white"/>
</clipPath>
</defs>
</svg>
