<svg width="64" height="64" viewBox="0 0 64 64" fill="none" xmlns="http://www.w3.org/2000/svg">
<g id="Group 27562">
<circle id="Ellipse 2513" cx="32" cy="32" r="32" fill="#E8EDDF"/>
<path id="Vector" d="M20.6364 42.1758V19.6112C20.6363 19.2629 20.7195 18.923 20.8746 18.6377C21.0298 18.3524 21.2495 18.1355 21.5037 18.0164L34.2519 12.0512C34.3514 12.0045 34.4583 11.9895 34.5634 12.0073C34.6684 12.0251 34.7686 12.0752 34.8554 12.1535C34.9422 12.2317 35.0131 12.3358 35.062 12.4568C35.1109 12.5778 35.1364 12.7122 35.1364 12.8485V21.2518L43.462 24.8231C43.7246 24.9357 43.953 25.1517 44.1148 25.4407C44.2767 25.7297 44.3637 26.0769 44.3636 26.4331V42.1758H47V45.569H18V42.1758H20.6364ZM23.2727 42.1758H32.5V16.481L23.2727 20.8005V42.1758ZM41.7273 42.1758V27.6564L35.1364 24.8282V42.1758H41.7273Z" fill="#515D3D"/>
</g>
</svg>
