<svg width="236" height="86" viewBox="0 0 236 86" fill="none" xmlns="http://www.w3.org/2000/svg">
<g id="Group 27585">
<rect id="Rectangle 3611" x="0.92334" y="0.398438" width="234.514" height="85.2777" rx="21.3194" fill="#FBFFF5"/>
<path id="R$ 465,00" d="M92.7506 62.2998V46.7366H97.4409C99.7292 46.7366 101.399 47.1062 102.451 47.8452C103.517 48.5843 104.05 49.7569 104.05 51.3629C104.05 52.9406 103.538 54.1203 102.515 54.902C101.506 55.6837 99.9637 56.0745 97.8886 56.0745H93.9232V54.0279H97.5475C98.9972 54.0279 100.042 53.8289 100.681 53.4309C101.335 53.0187 101.662 52.3578 101.662 51.4482C101.662 50.5386 101.335 49.8848 100.681 49.4868C100.042 49.0747 98.9972 48.8686 97.5475 48.8686H95.0958V62.2998H92.7506ZM101.854 62.2998L94.7973 55.1791H97.7607L104.903 62.2998H101.854ZM111.955 62.513C110.904 62.513 109.909 62.3851 108.971 62.1292C108.032 61.8592 107.208 61.4755 106.497 60.978L107.03 58.8887C107.741 59.3719 108.523 59.7415 109.376 59.9973C110.228 60.2531 111.088 60.3811 111.955 60.3811C113.092 60.3811 113.959 60.1892 114.556 59.8054C115.167 59.4075 115.473 58.8532 115.473 58.1425C115.473 57.7303 115.359 57.3679 115.132 57.0552C114.904 56.7425 114.528 56.4583 114.002 56.2024C113.49 55.9324 112.801 55.6624 111.934 55.3923C110.655 54.9659 109.617 54.5182 108.821 54.0492C108.04 53.5802 107.471 53.0614 107.116 52.4929C106.76 51.9101 106.583 51.2492 106.583 50.5102C106.583 49.2168 107.073 48.229 108.054 47.5468C109.035 46.8645 110.442 46.5234 112.275 46.5234C113.27 46.5234 114.215 46.6229 115.111 46.8219C116.006 47.0209 116.816 47.3122 117.541 47.696L117.008 49.7853C116.198 49.3873 115.43 49.1031 114.705 48.9325C113.995 48.7478 113.22 48.6554 112.382 48.6554C111.273 48.6554 110.442 48.8117 109.887 49.1244C109.333 49.4229 109.056 49.8848 109.056 50.5102C109.056 50.8655 109.162 51.1924 109.376 51.4909C109.603 51.7751 109.958 52.0452 110.442 52.301C110.925 52.5568 111.572 52.8127 112.382 53.0685C113.703 53.5233 114.762 53.9923 115.558 54.4756C116.354 54.9588 116.93 55.4918 117.285 56.0745C117.64 56.643 117.818 57.3111 117.818 58.0786C117.818 59.4856 117.299 60.58 116.262 61.3617C115.238 62.1292 113.803 62.513 111.955 62.513ZM110.271 64.5383V61.3404H112.296V64.5383H110.271ZM110.271 61.3404V54.305H112.296V61.3404H110.271ZM112.275 54.305V47.696H114.3V54.305H112.275ZM112.275 47.696V44.4981H114.3V47.696H112.275ZM133.145 62.2998V59.4004H125.171V57.2684L133.145 46.7366H135.49V57.2684H138.283V59.4004H135.49V62.2998H133.145ZM128.007 57.2684H133.145V50.5954H133.102L128.007 57.2258V57.2684ZM145.417 62.513C144.152 62.513 143.079 62.2856 142.198 61.8308C141.331 61.376 140.67 60.708 140.215 59.8268C139.775 58.9455 139.554 57.8654 139.554 56.5862C139.554 54.6248 139.924 52.9193 140.663 51.4695C141.416 50.0056 142.489 48.8544 143.882 48.0158C145.289 47.163 146.966 46.6727 148.914 46.5447L149.319 48.4635C147.528 48.563 146.064 48.9752 144.927 49.7C143.79 50.4249 142.958 51.4624 142.432 52.8127L142.475 52.834C142.987 52.5071 143.555 52.2655 144.181 52.1091C144.806 51.9386 145.474 51.8533 146.185 51.8533C147.762 51.8533 149.006 52.3223 149.916 53.2604C150.825 54.1842 151.28 55.4634 151.28 57.0979C151.28 58.2207 151.045 59.1872 150.576 59.9973C150.107 60.8074 149.432 61.4328 148.551 61.8734C147.684 62.2998 146.639 62.513 145.417 62.513ZM145.417 60.4237C146.54 60.4237 147.407 60.1323 148.018 59.5496C148.629 58.9669 148.935 58.1567 148.935 57.1192C148.935 56.0816 148.643 55.2786 148.061 54.7101C147.492 54.1274 146.682 53.836 145.63 53.836C144.849 53.836 144.181 53.9639 143.626 54.2197C143.072 54.4614 142.646 54.8238 142.347 55.307C142.049 55.7761 141.899 56.3517 141.899 57.0339C141.899 57.6024 142.013 58.1496 142.241 58.6755C142.468 59.1872 142.837 59.6064 143.349 59.9333C143.875 60.2602 144.564 60.4237 145.417 60.4237ZM158.329 62.513C157.434 62.513 156.631 62.4277 155.92 62.2572C155.209 62.0724 154.513 61.8024 153.831 61.447L154.47 59.4217C155.167 59.777 155.799 60.0328 156.368 60.1892C156.951 60.3455 157.569 60.4237 158.223 60.4237C159.53 60.4237 160.539 60.1465 161.25 59.5922C161.961 59.0379 162.316 58.2491 162.316 57.2258C162.316 56.3019 162.032 55.5984 161.463 55.1152C160.895 54.6319 160.084 54.3903 159.033 54.3903C158.478 54.3903 158.009 54.4685 157.626 54.6248C157.242 54.7812 156.865 55.0441 156.496 55.4136H154.279L154.79 46.7366H163.979V48.8259H156.901L156.645 53.0045H156.688C157.128 52.7771 157.562 52.6137 157.988 52.5142C158.414 52.4147 158.891 52.365 159.416 52.365C161.079 52.365 162.373 52.7984 163.297 53.6654C164.235 54.5324 164.704 55.7405 164.704 57.2897C164.704 58.9669 164.149 60.2602 163.041 61.1699C161.946 62.0653 160.376 62.513 158.329 62.513ZM166.871 65.9241L168.363 59.5283H171.135L169.003 65.9241H166.871ZM179.478 62.513C177.432 62.513 175.904 61.8592 174.895 60.5516C173.9 59.2298 173.402 57.2187 173.402 54.5182C173.402 51.8178 173.9 49.8137 174.895 48.5061C175.904 47.1843 177.432 46.5234 179.478 46.5234C181.525 46.5234 183.046 47.1843 184.041 48.5061C185.05 49.8137 185.554 51.8178 185.554 54.5182C185.554 57.2187 185.05 59.2298 184.041 60.5516C183.046 61.8592 181.525 62.513 179.478 62.513ZM179.478 60.3811C180.743 60.3811 181.667 59.9049 182.25 58.9527C182.847 58.0004 183.145 56.5222 183.145 54.5182C183.145 52.5 182.847 51.0218 182.25 50.0838C181.667 49.1315 180.743 48.6554 179.478 48.6554C178.227 48.6554 177.304 49.1315 176.707 50.0838C176.11 51.0218 175.811 52.5 175.811 54.5182C175.811 56.5222 176.11 58.0004 176.707 58.9527C177.304 59.9049 178.227 60.3811 179.478 60.3811ZM193.115 62.513C191.069 62.513 189.541 61.8592 188.531 60.5516C187.537 59.2298 187.039 57.2187 187.039 54.5182C187.039 51.8178 187.537 49.8137 188.531 48.5061C189.541 47.1843 191.069 46.5234 193.115 46.5234C195.162 46.5234 196.683 47.1843 197.678 48.5061C198.687 49.8137 199.191 51.8178 199.191 54.5182C199.191 57.2187 198.687 59.2298 197.678 60.5516C196.683 61.8592 195.162 62.513 193.115 62.513ZM193.115 60.3811C194.38 60.3811 195.304 59.9049 195.887 58.9527C196.484 58.0004 196.782 56.5222 196.782 54.5182C196.782 52.5 196.484 51.0218 195.887 50.0838C195.304 49.1315 194.38 48.6554 193.115 48.6554C191.864 48.6554 190.941 49.1315 190.344 50.0838C189.747 51.0218 189.448 52.5 189.448 54.5182C189.448 56.5222 189.747 58.0004 190.344 58.9527C190.941 59.9049 191.864 60.3811 193.115 60.3811Z" fill="#515D3D"/>
<path id="Investimento" d="M92.2153 32.6113V21.0041H93.4921V32.6113H92.2153ZM95.8209 32.6113V24.3039H97.048V25.2822C97.7002 24.5194 98.5735 24.138 99.6679 24.138C100.298 24.138 100.851 24.2762 101.326 24.5526C101.812 24.8179 102.188 25.1937 102.454 25.6801C102.73 26.1555 102.868 26.7137 102.868 27.3549V32.6113H101.658V27.6036C101.658 26.863 101.448 26.2826 101.028 25.8625C100.619 25.4314 100.055 25.2159 99.3362 25.2159C98.8388 25.2159 98.3966 25.3264 98.0097 25.5475C97.6228 25.7686 97.3022 26.0836 97.048 26.4927V32.6113H95.8209ZM107.153 32.6113L103.555 24.3039H104.915L107.75 31.0195L110.586 24.3039H111.896L108.314 32.6113H107.153ZM116.672 32.7606C115.876 32.7606 115.152 32.5726 114.5 32.1968C113.858 31.8099 113.344 31.2903 112.958 30.6381C112.582 29.9859 112.394 29.2563 112.394 28.4493C112.394 27.6534 112.576 26.9348 112.941 26.2937C113.306 25.6415 113.798 25.1274 114.417 24.7516C115.036 24.3647 115.727 24.1712 116.489 24.1712C117.23 24.1712 117.893 24.3647 118.479 24.7516C119.076 25.1274 119.546 25.6415 119.889 26.2937C120.242 26.9348 120.419 27.6534 120.419 28.4493V28.8307H113.604C113.671 29.3724 113.842 29.8588 114.118 30.2899C114.406 30.721 114.776 31.0637 115.229 31.3179C115.682 31.5611 116.18 31.6827 116.722 31.6827C117.153 31.6827 117.573 31.6164 117.982 31.4838C118.391 31.3511 118.734 31.1632 119.01 30.92L119.773 31.7325C119.308 32.0752 118.822 32.335 118.313 32.5118C117.816 32.6777 117.269 32.7606 116.672 32.7606ZM113.637 27.8524H119.192C119.126 27.3549 118.96 26.9127 118.695 26.5258C118.441 26.1279 118.12 25.8183 117.733 25.5972C117.346 25.3651 116.921 25.249 116.456 25.249C115.981 25.249 115.544 25.3596 115.146 25.5807C114.748 25.8017 114.417 26.1113 114.151 26.5092C113.886 26.8961 113.715 27.3439 113.637 27.8524ZM124.869 32.7771C124.183 32.7771 123.537 32.6666 122.929 32.4455C122.332 32.2134 121.812 31.8928 121.37 31.4838L122.116 30.6878C122.503 31.0416 122.929 31.3179 123.393 31.5169C123.857 31.7049 124.333 31.7988 124.819 31.7988C125.482 31.7988 126.024 31.6606 126.444 31.3843C126.864 31.1079 127.074 30.7486 127.074 30.3065C127.074 29.9417 126.947 29.6598 126.693 29.4608C126.45 29.2508 126.063 29.107 125.532 29.0297L124.089 28.8307C123.26 28.7091 122.641 28.4604 122.232 28.0845C121.834 27.7086 121.635 27.2001 121.635 26.559C121.635 26.0947 121.768 25.6801 122.033 25.3153C122.299 24.9505 122.663 24.6631 123.128 24.4531C123.603 24.2431 124.145 24.138 124.753 24.138C125.361 24.138 125.93 24.2265 126.461 24.4033C126.991 24.5802 127.511 24.8566 128.019 25.2324L127.373 26.0615C126.908 25.7409 126.455 25.5088 126.013 25.3651C125.582 25.2103 125.14 25.1329 124.686 25.1329C124.112 25.1329 123.647 25.2601 123.294 25.5143C122.94 25.7686 122.763 26.1002 122.763 26.5092C122.763 26.8851 122.885 27.1725 123.128 27.3715C123.371 27.5594 123.763 27.6921 124.305 27.7694L125.748 27.9684C126.577 28.079 127.196 28.3222 127.605 28.698C128.025 29.0739 128.235 29.5879 128.235 30.2401C128.235 30.7155 128.086 31.1466 127.787 31.5335C127.489 31.9204 127.085 32.2244 126.577 32.4455C126.079 32.6666 125.51 32.7771 124.869 32.7771ZM132.721 32.7771C132.002 32.7771 131.449 32.6058 131.062 32.2631C130.676 31.9204 130.482 31.423 130.482 30.7708V25.3485H128.691V24.3039H130.482V22.198L131.693 21.8829V24.3039H134.196V25.3485H131.693V30.4557C131.693 30.8979 131.792 31.2185 131.991 31.4174C132.19 31.6054 132.516 31.6993 132.969 31.6993C133.202 31.6993 133.406 31.6827 133.583 31.6496C133.771 31.6164 133.97 31.5611 134.18 31.4838V32.5616C133.97 32.639 133.732 32.6942 133.467 32.7274C133.213 32.7606 132.964 32.7771 132.721 32.7771ZM135.51 32.6113V24.3039H136.737V32.6113H135.51ZM136.124 22.712C135.903 22.712 135.709 22.6291 135.543 22.4633C135.378 22.2975 135.295 22.104 135.295 21.8829C135.295 21.6508 135.378 21.4573 135.543 21.3026C135.709 21.1367 135.903 21.0538 136.124 21.0538C136.356 21.0538 136.549 21.1367 136.704 21.3026C136.87 21.4573 136.953 21.6508 136.953 21.8829C136.953 22.104 136.87 22.2975 136.704 22.4633C136.549 22.6291 136.356 22.712 136.124 22.712ZM138.83 32.6113V24.3039H140.057V25.2159C140.687 24.4973 141.5 24.138 142.494 24.138C143.08 24.138 143.6 24.2762 144.053 24.5526C144.506 24.8179 144.86 25.1827 145.114 25.647C145.457 25.1385 145.866 24.7626 146.341 24.5194C146.817 24.2652 147.358 24.138 147.966 24.138C148.574 24.138 149.105 24.2762 149.558 24.5526C150.012 24.8179 150.365 25.1937 150.62 25.6801C150.885 26.1555 151.017 26.7137 151.017 27.3549V32.6113H149.807V27.6036C149.807 26.863 149.614 26.2826 149.227 25.8625C148.84 25.4314 148.315 25.2159 147.651 25.2159C147.198 25.2159 146.784 25.3319 146.408 25.5641C146.032 25.7852 145.711 26.1223 145.446 26.5756C145.468 26.6972 145.485 26.8243 145.496 26.9569C145.518 27.0785 145.529 27.2112 145.529 27.3549V32.6113H144.318V27.6036C144.318 26.863 144.125 26.2826 143.738 25.8625C143.351 25.4314 142.832 25.2159 142.179 25.2159C141.737 25.2159 141.334 25.3209 140.969 25.5309C140.615 25.7299 140.311 26.0284 140.057 26.4263V32.6113H138.83ZM156.977 32.7606C156.181 32.7606 155.457 32.5726 154.804 32.1968C154.163 31.8099 153.649 31.2903 153.262 30.6381C152.886 29.9859 152.698 29.2563 152.698 28.4493C152.698 27.6534 152.881 26.9348 153.246 26.2937C153.61 25.6415 154.102 25.1274 154.721 24.7516C155.341 24.3647 156.031 24.1712 156.794 24.1712C157.535 24.1712 158.198 24.3647 158.784 24.7516C159.381 25.1274 159.851 25.6415 160.193 26.2937C160.547 26.9348 160.724 27.6534 160.724 28.4493V28.8307H153.909C153.975 29.3724 154.147 29.8588 154.423 30.2899C154.71 30.721 155.081 31.0637 155.534 31.3179C155.987 31.5611 156.485 31.6827 157.026 31.6827C157.457 31.6827 157.878 31.6164 158.287 31.4838C158.696 31.3511 159.038 31.1632 159.315 30.92L160.077 31.7325C159.613 32.0752 159.127 32.335 158.618 32.5118C158.121 32.6777 157.574 32.7606 156.977 32.7606ZM153.942 27.8524H159.497C159.431 27.3549 159.265 26.9127 159 26.5258C158.745 26.1279 158.425 25.8183 158.038 25.5972C157.651 25.3651 157.225 25.249 156.761 25.249C156.286 25.249 155.849 25.3596 155.451 25.5807C155.053 25.8017 154.721 26.1113 154.456 26.5092C154.191 26.8961 154.019 27.3439 153.942 27.8524ZM162.439 32.6113V24.3039H163.667V25.2822C164.319 24.5194 165.192 24.138 166.286 24.138C166.917 24.138 167.469 24.2762 167.945 24.5526C168.431 24.8179 168.807 25.1937 169.072 25.6801C169.349 26.1555 169.487 26.7137 169.487 27.3549V32.6113H168.276V27.6036C168.276 26.863 168.066 26.2826 167.646 25.8625C167.237 25.4314 166.673 25.2159 165.955 25.2159C165.457 25.2159 165.015 25.3264 164.628 25.5475C164.241 25.7686 163.921 26.0836 163.667 26.4927V32.6113H162.439ZM174.564 32.7771C173.845 32.7771 173.292 32.6058 172.906 32.2631C172.519 31.9204 172.325 31.423 172.325 30.7708V25.3485H170.534V24.3039H172.325V22.198L173.536 21.8829V24.3039H176.04V25.3485H173.536V30.4557C173.536 30.8979 173.635 31.2185 173.834 31.4174C174.033 31.6054 174.359 31.6993 174.812 31.6993C175.045 31.6993 175.249 31.6827 175.426 31.6496C175.614 31.6164 175.813 31.5611 176.023 31.4838V32.5616C175.813 32.639 175.575 32.6942 175.31 32.7274C175.056 32.7606 174.807 32.7771 174.564 32.7771ZM181.055 32.7771C180.27 32.7771 179.552 32.5892 178.899 32.2134C178.258 31.8265 177.75 31.3069 177.374 30.6547C176.998 30.0025 176.81 29.2729 176.81 28.4659C176.81 27.6589 176.998 26.9293 177.374 26.2771C177.75 25.6249 178.258 25.1108 178.899 24.735C179.552 24.3481 180.27 24.1546 181.055 24.1546C181.851 24.1546 182.569 24.3481 183.211 24.735C183.852 25.1108 184.36 25.6249 184.736 26.2771C185.112 26.9293 185.3 27.6589 185.3 28.4659C185.3 29.2729 185.112 30.0025 184.736 30.6547C184.36 31.3069 183.852 31.8265 183.211 32.2134C182.569 32.5892 181.851 32.7771 181.055 32.7771ZM181.055 31.6827C181.619 31.6827 182.127 31.539 182.581 31.2516C183.045 30.9642 183.41 30.5773 183.675 30.0909C183.951 29.6045 184.089 29.0628 184.089 28.4659C184.089 27.8579 183.951 27.3162 183.675 26.8409C183.41 26.3545 183.045 25.9676 182.581 25.6801C182.127 25.3927 181.619 25.249 181.055 25.249C180.491 25.249 179.977 25.3927 179.513 25.6801C179.06 25.9676 178.695 26.3545 178.418 26.8409C178.153 27.3162 178.021 27.8579 178.021 28.4659C178.021 29.0628 178.153 29.6045 178.418 30.0909C178.695 30.5773 179.06 30.9642 179.513 31.2516C179.977 31.539 180.491 31.6827 181.055 31.6827Z" fill="#7C7C7D"/>
<circle id="Ellipse 2486" cx="45.9308" cy="43.0372" r="28.4259" fill="#A9C96B" fill-opacity="0.4"/>
<path id="Vector" d="M39.5396 34.7466V49.4859H54.7349V51.3284H37.6401V34.7466H39.5396ZM54.0634 37.7801L55.4063 39.0827L49.9863 44.3401L47.1372 41.5774L43.0601 45.5312L41.7172 44.2286L47.1372 38.9713L49.9863 41.734L54.0634 37.7801Z" fill="#65744D"/>
</g>
</svg>
