<svg width="63" height="62" viewBox="0 0 63 62" fill="none" xmlns="http://www.w3.org/2000/svg">
<g id="Group 27582">
<circle id="Ellipse 2513" cx="31.7825" cy="31.0975" r="30.7947" fill="#FBFFF5"/>
<path id="Vector" d="M31.7826 18.0103L41.623 20.1828C41.8889 20.2416 42.1268 20.3886 42.2973 20.5997C42.4677 20.8108 42.5607 21.0734 42.5607 21.3441V33.2266C42.5606 34.4018 42.2685 35.5588 41.7103 36.5949C41.1521 37.631 40.345 38.5142 39.3608 39.166L31.7826 44.1858L24.2043 39.166C23.2202 38.5143 22.4133 37.6313 21.8551 36.5954C21.2969 35.5595 21.0047 34.4028 21.0044 33.2278V21.3441C21.0044 21.0734 21.0974 20.8108 21.2678 20.5997C21.4383 20.3886 21.6762 20.2416 21.9421 20.1828L31.7826 18.0103ZM31.7826 20.4481L23.3995 22.2983V33.2266C23.3996 34.01 23.5942 34.7813 23.9663 35.472C24.3384 36.1628 24.8763 36.7516 25.5324 37.1862L31.7826 41.3267L38.0327 37.1862C38.6886 36.7517 39.2265 36.1631 39.5985 35.4726C39.9706 34.7821 40.1654 34.011 40.1656 33.2278V22.2983L31.7826 20.4481ZM31.7826 25.149C32.3099 25.1488 32.8226 25.3215 33.241 25.6403C33.6595 25.959 33.9604 26.4061 34.097 26.9122C34.2336 27.4182 34.1983 27.9549 33.9966 28.4389C33.7949 28.923 33.438 29.3274 32.9813 29.5894L32.9801 34.6674H30.585V29.5894C30.1284 29.3274 29.7716 28.9231 29.5698 28.4392C29.3681 27.9553 29.3327 27.4187 29.4691 26.9127C29.6056 26.4068 29.9063 25.9597 30.3245 25.6408C30.7428 25.3219 31.2553 25.1491 31.7826 25.149Z" fill="#849170"/>
</g>
</svg>
