<svg width="309" height="667" viewBox="0 0 309 667" fill="none" xmlns="http://www.w3.org/2000/svg">
<g id="Group 27548">
<g id="iPhone13Pro22" class="iPhone13Pro22">
<g clip-path="url(#clip0_404_1172)">
<rect width="309" height="667" rx="36" fill="#060802"/>
<g id="Ellipse 253" filter="url(#filter0_f_404_1172)">
<circle cx="152.525" cy="237.875" r="113.011" fill="url(#paint0_linear_404_1172)" fill-opacity="0.4"/>
</g>
<path id="Vector 1944" opacity="0.3" d="M449.672 -4.7417L301.099 501.831" stroke="#A9C96B" stroke-width="0.347246"/>
<g id="Group 27540">
<path id="Vector 1943" opacity="0.3" d="M112.221 -72.7061L-38.7236 433.866" stroke="#A9C96B" stroke-width="0.347246"/>
<path id="Vector 1945" opacity="0.3" d="M458.365 293.986L-77.4482 -72.7061" stroke="#A9C96B" stroke-width="0.347246"/>
<path id="Vector 1946" opacity="0.3" d="M397.513 490.767L-138.3 124.075" stroke="#A9C96B" stroke-width="0.347246"/>
<path id="Vector 1947" opacity="0.3" d="M50.5781 393.562L479.703 19.7573" stroke="#A9C96B" stroke-width="0.347246"/>
<path id="Vector 1948" opacity="0.3" d="M24.499 248.149L293.196 559.521" stroke="#A9C96B" stroke-width="0.347246"/>
</g>
<g id="Group 27541">
<path id="Vector 1945_2" opacity="0.3" d="M326.3 670.806L-310.92 234.714" stroke="#A9C96B" stroke-width="0.347246"/>
<path id="Vector 1946_2" opacity="0.3" d="M253.932 904.829L-383.288 468.737" stroke="#A9C96B" stroke-width="0.347246"/>
<path id="Vector 1947_2" opacity="0.3" d="M-158.663 789.227L351.677 344.677" stroke="#A9C96B" stroke-width="0.347246"/>
<path id="Vector 1948_2" opacity="0.3" d="M-189.679 616.294L129.871 986.596" stroke="#A9C96B" stroke-width="0.347246"/>
</g>
<path id="Vector 1949" opacity="0.3" d="M287.663 11.8545L450.462 201.523" stroke="#A9C96B" stroke-width="0.347246"/>
<g id="Ellipse 252" filter="url(#filter1_f_404_1172)">
<circle cx="158.847" cy="237.875" r="95.6244" fill="#515D3D" fill-opacity="0.4"/>
</g>
<g id="Rectangle 2085" filter="url(#filter2_f_404_1172)">
<rect x="31.6113" y="590.342" width="244.988" height="31.6114" rx="9.48341" fill="url(#paint1_linear_404_1172)" fill-opacity="0.4"/>
</g>
<text id="Seja bem-vindo ao banco do futuro" fill="#FBFFF5" xml:space="preserve" style="white-space: pre" font-family="M PLUS 1" font-size="37.9337" letter-spacing="0em"><tspan x="24.499" y="418.875">Seja bem-</tspan><tspan x="24.499" y="464.875">vindo ao banco </tspan><tspan x="24.499" y="510.875">do futuro</tspan></text>
<rect id="Rectangle 2082" width="170.564" height="105.616" rx="6.32228" transform="matrix(0.760406 -0.649448 0.645858 0.763458 78.7402 258.229)" fill="#515D3D"/>
<rect id="Rectangle 2083" width="163.887" height="93.4765" rx="6.32228" transform="matrix(0.824126 0.566406 -0.285019 0.958522 65.3672 118.542)" fill="url(#paint2_linear_404_1172)"/>
<rect id="Rectangle 2084" x="26.499" y="572.375" width="259.213" height="41.0948" rx="7.90284" fill="url(#paint3_linear_404_1172)"/>
<text id="Junte-se a mais de 560 mil" fill="#FBFFF5" xml:space="preserve" style="white-space: pre" font-family="M PLUS 1" font-size="12.6446" font-weight="500" letter-spacing="0em"><tspan x="72.4364" y="597.162">Junte-se a mais de 560 mil</tspan></text>
<text id="OL&#195;&#129;, COMO VAI?" fill="url(#paint4_linear_404_1172)" xml:space="preserve" style="white-space: pre" font-family="M PLUS 1" font-size="12.6446" font-weight="bold" letter-spacing="0em"><tspan x="24.499" y="366.19">OL&#xc1;, COMO VAI?</tspan></text>
<g id="notifications">
<rect width="308.211" height="31.6114" fill="#060802"/>
<text id="19:07" fill="#F2F7E9" xml:space="preserve" style="white-space: pre" font-family="Inter" font-size="12.6446" font-weight="bold" letter-spacing="0em"><tspan x="35.1332" y="23.9525">19:07</tspan></text>
<g id="Group 5230">
<rect id="Rectangle 2095" x="229.183" y="17.2319" width="2.31303" height="2.77563" rx="0.693908" fill="#FBFFF5"/>
<rect id="Rectangle 2099" x="229.183" y="21.3955" width="2.31303" height="2.31303" rx="0.693908" fill="#FBFFF5"/>
<rect id="Rectangle 2100" x="232.883" y="21.3955" width="2.31303" height="2.31303" rx="0.693908" fill="#FBFFF5"/>
<rect id="Rectangle 2101" x="236.584" y="21.3955" width="2.31303" height="2.31303" rx="0.693908" fill="#FBFFF5"/>
<rect id="Rectangle 2102" x="240.285" y="21.3955" width="2.31303" height="2.31303" rx="0.693908" fill="#FBFFF5"/>
<rect id="Rectangle 2096" x="232.883" y="16.3071" width="2.31303" height="3.70084" rx="0.693908" fill="#FBFFF5"/>
<rect id="Rectangle 2097" x="236.584" y="15.3818" width="2.31303" height="4.62606" rx="0.693908" fill="#FBFFF5"/>
<rect id="Rectangle 2098" x="240.285" y="14.2251" width="2.31303" height="5.78257" rx="0.693908" fill="#FBFFF5"/>
</g>
<g id="Vector 1104">
<path d="M248.685 18.0018L248.195 17.5113C247.99 17.3069 248.021 16.9666 248.263 16.8073C252.543 13.9801 255.012 14.1609 258.914 16.8053C259.152 16.9663 259.181 17.3041 258.978 17.507L258.484 18.0012C258.326 18.1596 258.077 18.181 257.891 18.0561C254.557 15.817 252.571 15.8527 249.278 18.0572C249.092 18.1817 248.843 18.16 248.685 18.0018Z" fill="#F2F7E9"/>
<path d="M250.663 20.1219L250.199 19.704C249.978 19.5053 250 19.1518 250.248 18.9887C252.689 17.3851 254.267 17.3317 256.803 18.989C257.052 19.1516 257.074 19.5056 256.853 19.7045L256.394 20.1183C256.237 20.2588 256.006 20.275 255.827 20.1652C254.074 19.0903 252.978 19.1225 251.224 20.1719C251.046 20.2784 250.818 20.2607 250.663 20.1219Z" fill="#F2F7E9"/>
<path d="M253.257 22.8052L252.351 21.8985C252.149 21.6967 252.175 21.3587 252.42 21.2132C253.312 20.6848 253.931 20.7169 254.751 21.2114C254.995 21.3585 255.021 21.696 254.819 21.8975L253.911 22.8052C253.731 22.9859 253.438 22.9859 253.257 22.8052Z" fill="#F2F7E9"/>
</g>
<g id="Group 5231">
<rect id="Rectangle 2103" x="264.572" y="14.2251" width="17.3477" height="9.48341" rx="2.54433" fill="#FBFFF5" fill-opacity="0.3"/>
<rect id="Rectangle 2104" x="264.572" y="14.2251" width="14.3408" height="9.48341" rx="2.54433" fill="#FBFFF5"/>
<path id="Vector 1103" d="M282.613 20.3543V17.6943C283.192 18.0413 283.491 18.3171 283.538 18.9665C283.538 19.5448 283.307 20.0074 282.613 20.3543Z" fill="#FBFFF5" fill-opacity="0.3"/>
</g>
<text id="77" fill="#12140D" xml:space="preserve" style="white-space: pre" font-family="Inter" font-size="7.90284" font-weight="bold" letter-spacing="0em"><tspan x="267.339" y="21.5989">77</tspan></text>
</g>
<text id="PayBank." fill="#E8EDDF" xml:space="preserve" style="white-space: pre" font-family="M PLUS 1" font-size="18.9668" font-weight="500" letter-spacing="0em"><tspan x="139.35" y="95.0562">PayBank.</tspan></text>
<g id="Group 27545">
<rect id="Rectangle 3641" width="19.4654" height="24.1969" rx="1.97591" transform="matrix(1 0 -0.423883 0.905717 92.4463 79.4326)" fill="url(#paint5_linear_404_1172)"/>
<rect id="Rectangle 3642" width="31.4842" height="21.0851" rx="1.97591" transform="matrix(1 0 -0.423883 0.905717 95.4658 72.7061)" fill="url(#paint6_linear_404_1172)"/>
</g>
</g>
</g>
<g id="iPhone13Pro23"  class="iPhone13Pro23">
<rect width="309" height="667" rx="36" fill="#060802"/>
<circle id="Ellipse 248" cx="153.711" cy="221.675" r="114.196" fill="url(#paint7_linear_404_1172)" fill-opacity="0.1"/>
<circle id="Ellipse 247" cx="153.71" cy="221.675" r="80.2139" fill="url(#paint8_linear_404_1172)" fill-opacity="0.15"/>
<circle id="Ellipse 246" cx="154.106" cy="222.07" r="51.3685" fill="url(#paint9_linear_404_1172)" fill-opacity="0.3"/>
<circle id="Ellipse 245" cx="154.106" cy="222.07" r="31.6114" fill="url(#paint10_linear_404_1172)"/>
<g id="Group 5229">
<path id="Vector 1098" d="M149.271 217.979V220.443M158.568 217.979V220.443M154.362 217.979V222.458C154.362 223.429 153.772 223.952 152.739 223.952M150.156 226.415C152.296 228.506 155.469 228.655 157.904 226.266" stroke="#FBFFF5" stroke-width="1.58057" stroke-linecap="round" stroke-linejoin="round"/>
<path id="Vector 1099" d="M158.196 209.425H160.924C163.866 209.425 166.378 212.847 166.378 215.45V218.351" stroke="#FBFFF5" stroke-width="1.58057" stroke-linecap="round" stroke-linejoin="round"/>
<path id="Vector 1100" d="M150.015 209.425H147.163C144.087 209.425 141.461 212.847 141.461 215.45V218.351" stroke="#FBFFF5" stroke-width="1.58057" stroke-linecap="round" stroke-linejoin="round"/>
<path id="Vector 1101" d="M158.196 234.714H161.048C164.124 234.714 166.75 231.293 166.75 228.69V225.789" stroke="#FBFFF5" stroke-width="1.58057" stroke-linecap="round" stroke-linejoin="round"/>
<path id="Vector 1102" d="M150.015 234.714H147.163C144.087 234.714 141.461 231.293 141.461 228.69V225.789" stroke="#FBFFF5" stroke-width="1.58057" stroke-linecap="round" stroke-linejoin="round"/>
</g>
<g id="notifications_2">
<rect width="308.211" height="31.6114" fill="#060802"/>
<text id="19:07_2" fill="#F2F7E9" xml:space="preserve" style="white-space: pre" font-family="Inter" font-size="12.6446" font-weight="bold" letter-spacing="0em"><tspan x="35.1332" y="23.9525">19:07</tspan></text>
<g id="Group 5230_2">
<rect id="Rectangle 2095_2" x="229.183" y="17.2319" width="2.31303" height="2.77563" rx="0.693908" fill="#FBFFF5"/>
<rect id="Rectangle 2099_2" x="229.183" y="21.3955" width="2.31303" height="2.31303" rx="0.693908" fill="#FBFFF5"/>
<rect id="Rectangle 2100_2" x="232.883" y="21.3955" width="2.31303" height="2.31303" rx="0.693908" fill="#FBFFF5"/>
<rect id="Rectangle 2101_2" x="236.584" y="21.3955" width="2.31303" height="2.31303" rx="0.693908" fill="#FBFFF5"/>
<rect id="Rectangle 2102_2" x="240.285" y="21.3955" width="2.31303" height="2.31303" rx="0.693908" fill="#FBFFF5"/>
<rect id="Rectangle 2096_2" x="232.883" y="16.3071" width="2.31303" height="3.70084" rx="0.693908" fill="#FBFFF5"/>
<rect id="Rectangle 2097_2" x="236.584" y="15.3818" width="2.31303" height="4.62606" rx="0.693908" fill="#FBFFF5"/>
<rect id="Rectangle 2098_2" x="240.285" y="14.2251" width="2.31303" height="5.78257" rx="0.693908" fill="#FBFFF5"/>
</g>
<g id="Vector 1104_2">
<path d="M248.685 18.0018L248.195 17.5113C247.99 17.3069 248.021 16.9666 248.263 16.8073C252.543 13.9801 255.012 14.1609 258.914 16.8053C259.152 16.9663 259.181 17.3041 258.978 17.507L258.484 18.0012C258.326 18.1596 258.077 18.181 257.891 18.0561C254.557 15.817 252.571 15.8527 249.278 18.0572C249.092 18.1817 248.843 18.16 248.685 18.0018Z" fill="#F2F7E9"/>
<path d="M250.663 20.1219L250.199 19.704C249.978 19.5053 250 19.1518 250.248 18.9887C252.689 17.3851 254.267 17.3317 256.803 18.989C257.052 19.1516 257.074 19.5056 256.853 19.7045L256.394 20.1183C256.237 20.2588 256.006 20.275 255.827 20.1652C254.074 19.0903 252.978 19.1225 251.224 20.1719C251.046 20.2784 250.818 20.2607 250.663 20.1219Z" fill="#F2F7E9"/>
<path d="M253.257 22.8052L252.351 21.8985C252.149 21.6967 252.175 21.3587 252.42 21.2132C253.312 20.6848 253.931 20.7169 254.751 21.2114C254.995 21.3585 255.021 21.696 254.819 21.8975L253.911 22.8052C253.731 22.9859 253.438 22.9859 253.257 22.8052Z" fill="#F2F7E9"/>
</g>
<g id="Group 5231_2">
<rect id="Rectangle 2103_2" x="264.572" y="14.2251" width="17.3477" height="9.48341" rx="2.54433" fill="#FBFFF5" fill-opacity="0.3"/>
<rect id="Rectangle 2104_2" x="264.572" y="14.2251" width="14.3408" height="9.48341" rx="2.54433" fill="#FBFFF5"/>
<path id="Vector 1103_2" d="M282.613 20.3543V17.6943C283.192 18.0413 283.491 18.3171 283.538 18.9665C283.538 19.5448 283.307 20.0074 282.613 20.3543Z" fill="#FBFFF5" fill-opacity="0.3"/>
</g>
<text id="77_2" fill="#12140D" xml:space="preserve" style="white-space: pre" font-family="Inter" font-size="7.90284" font-weight="bold" letter-spacing="0em"><tspan x="267.339" y="21.5989">77</tspan></text>
</g>
<text id="Activate touch ID so" opacity="0.8" fill="#949494" xml:space="preserve" style="white-space: pre" font-family="Red Hat Display" font-size="12.6446" letter-spacing="0em"><tspan x="38.878" y="439.971">Ativando a autentica&#xe7;&#xe3;o com o Face ID n&#xe3;o </tspan><tspan x="33.9696" y="458.971">ser&#xe1; necess&#xe1;rio confirmar o seu PIN toda vez </tspan><tspan x="91.8888" y="477.971">que entrar no aplicativo.</tspan></text>
<text id="Use Touch ID to auth" fill="#FBFFF5" xml:space="preserve" style="white-space: pre" font-family="M PLUS 1" font-size="18.9668" font-weight="500" letter-spacing="0em"><tspan x="15.2623" y="374.817">Use o Face ID para autenticar-</tspan><tspan x="78.553" y="399.817">se no Aplicativo.</tspan></text>
<rect id="Rectangle 2090" x="24.499" y="506.572" width="259.213" height="41.0948" rx="7.90284" fill="url(#paint11_linear_404_1172)"/>
<text id="Ativar agora" fill="#FBFFF5" xml:space="preserve" style="white-space: pre" font-family="M PLUS 1" font-size="12.6446" font-weight="500" letter-spacing="0em"><tspan x="115.664" y="531.359">Ativar agora</tspan></text>
<rect id="Rectangle 2091" x="24.8942" y="561.497" width="258.423" height="40.3045" rx="7.5077" fill="#1A1C15" stroke="#2F3329" stroke-width="0.790284"/>
<text id="Deixar para depois" fill="#FBFFF5" xml:space="preserve" style="white-space: pre" font-family="M PLUS 1" font-size="12.6446" font-weight="500" letter-spacing="0em"><tspan x="96.706" y="585.889">Deixar para depois</tspan></text>
<text id="SEGURAN&#195;&#135;A E PRATICIDADE" fill="url(#paint12_linear_404_1172)" xml:space="preserve" style="white-space: pre" font-family="M PLUS 1" font-size="12.6446" font-weight="bold" letter-spacing="0em"><tspan x="64.0127" y="346.432">SEGURAN&#xc7;A E PRATICIDADE</tspan></text>
</g>
<g id="iPhone13Pro24" class="iPhone13Pro24">
<g clip-path="url(#clip1_404_1172)">
<rect width="309" height="667" rx="36" fill="#060802"/>
<g id="Group 27547">
<g id="Ellipse 254" filter="url(#filter3_f_404_1172)">
<circle cx="143.553" cy="193.008" r="97.5476" fill="url(#paint13_linear_404_1172)" fill-opacity="0.4"/>
</g>
<g id="Group 27546">
<path id="Vector 1943_2" opacity="0.3" d="M108.763 -75.0771L-21.5273 362.182" stroke="#A9C96B" stroke-width="0.299733"/>
<path id="Vector 1945_3" opacity="0.3" d="M407.545 241.441L-54.9531 -75.0771" stroke="#A9C96B" stroke-width="0.299733"/>
<path id="Vector 1946_3" opacity="0.3" d="M355.02 411.296L-107.479 94.7783" stroke="#A9C96B" stroke-width="0.299733"/>
<path id="Vector 1947_3" opacity="0.3" d="M55.5557 327.392L425.964 4.73438" stroke="#A9C96B" stroke-width="0.299733"/>
<path id="Vector 1948_3" opacity="0.3" d="M33.0449 201.876L264.976 470.643" stroke="#A9C96B" stroke-width="0.299733"/>
</g>
<g id="Ellipse 255" filter="url(#filter4_f_404_1172)">
<circle cx="149.01" cy="193.008" r="82.5403" fill="#515D3D" fill-opacity="0.4"/>
</g>
<rect id="Rectangle 2086" width="147.226" height="91.1649" rx="5.45721" transform="matrix(0.760406 -0.649448 0.645858 0.763458 79.8643 210.576)" fill="#515D3D"/>
<rect id="Rectangle 2087" width="141.463" height="80.6862" rx="5.45721" transform="matrix(0.824126 0.566406 -0.285019 0.958522 68.3203 90.0034)" fill="url(#paint14_linear_404_1172)"/>
</g>
<g id="notifications_3">
<rect width="308.211" height="31.6114" fill="#060802"/>
<text id="19:07_3" fill="#F2F7E9" xml:space="preserve" style="white-space: pre" font-family="Inter" font-size="12.6446" font-weight="bold" letter-spacing="0em"><tspan x="35.1332" y="23.9525">19:07</tspan></text>
<g id="Group 5230_3">
<rect id="Rectangle 2095_3" x="229.183" y="17.2319" width="2.31303" height="2.77563" rx="0.693908" fill="#FBFFF5"/>
<rect id="Rectangle 2099_3" x="229.183" y="21.3955" width="2.31303" height="2.31303" rx="0.693908" fill="#FBFFF5"/>
<rect id="Rectangle 2100_3" x="232.883" y="21.3955" width="2.31303" height="2.31303" rx="0.693908" fill="#FBFFF5"/>
<rect id="Rectangle 2101_3" x="236.584" y="21.3955" width="2.31303" height="2.31303" rx="0.693908" fill="#FBFFF5"/>
<rect id="Rectangle 2102_3" x="240.285" y="21.3955" width="2.31303" height="2.31303" rx="0.693908" fill="#FBFFF5"/>
<rect id="Rectangle 2096_3" x="232.883" y="16.3071" width="2.31303" height="3.70084" rx="0.693908" fill="#FBFFF5"/>
<rect id="Rectangle 2097_3" x="236.584" y="15.3818" width="2.31303" height="4.62606" rx="0.693908" fill="#FBFFF5"/>
<rect id="Rectangle 2098_3" x="240.285" y="14.2251" width="2.31303" height="5.78257" rx="0.693908" fill="#FBFFF5"/>
</g>
<g id="Vector 1104_3">
<path d="M248.685 18.0018L248.195 17.5113C247.99 17.3069 248.021 16.9666 248.263 16.8073C252.543 13.9801 255.012 14.1609 258.914 16.8053C259.152 16.9663 259.181 17.3041 258.978 17.507L258.484 18.0012C258.326 18.1596 258.077 18.181 257.891 18.0561C254.557 15.817 252.571 15.8527 249.278 18.0572C249.092 18.1817 248.843 18.16 248.685 18.0018Z" fill="#F2F7E9"/>
<path d="M250.663 20.1219L250.199 19.704C249.978 19.5053 250 19.1518 250.248 18.9887C252.689 17.3851 254.267 17.3317 256.803 18.989C257.052 19.1516 257.074 19.5056 256.853 19.7045L256.394 20.1183C256.237 20.2588 256.006 20.275 255.827 20.1652C254.074 19.0903 252.978 19.1225 251.224 20.1719C251.046 20.2784 250.818 20.2607 250.663 20.1219Z" fill="#F2F7E9"/>
<path d="M253.257 22.8052L252.351 21.8985C252.149 21.6967 252.175 21.3587 252.42 21.2132C253.312 20.6848 253.931 20.7169 254.751 21.2114C254.995 21.3585 255.021 21.696 254.819 21.8975L253.911 22.8052C253.731 22.9859 253.438 22.9859 253.257 22.8052Z" fill="#F2F7E9"/>
</g>
<g id="Group 5231_3">
<rect id="Rectangle 2103_3" x="264.572" y="14.2251" width="17.3477" height="9.48341" rx="2.54433" fill="#FBFFF5" fill-opacity="0.3"/>
<rect id="Rectangle 2104_3" x="264.572" y="14.2251" width="14.3408" height="9.48341" rx="2.54433" fill="#FBFFF5"/>
<path id="Vector 1103_3" d="M282.613 20.3543V17.6943C283.192 18.0413 283.491 18.3171 283.538 18.9665C283.538 19.5448 283.307 20.0074 282.613 20.3543Z" fill="#FBFFF5" fill-opacity="0.3"/>
</g>
<text id="77_3" fill="#12140D" xml:space="preserve" style="white-space: pre" font-family="Inter" font-size="7.90284" font-weight="bold" letter-spacing="0em"><tspan x="267.339" y="21.5989">77</tspan></text>
</g>
<g id="Component 2">
<g clip-path="url(#clip2_404_1172)">
<mask id="path-94-inside-1_404_1172" fill="white">
<path d="M0 603.777H308.211V667H0V603.777Z"/>
</mask>
<path d="M0 603.777H308.211V667H0V603.777Z" fill="#060802"/>
<rect id="Rectangle 3643" x="88.5117" y="604.568" width="63.2228" height="62.4325" fill="#2F3329"/>
<text id="Home" fill="#515D3D" xml:space="preserve" style="white-space: pre" font-family="Red Hat Display" font-size="9.48341" letter-spacing="0em"><tspan x="37.9865" y="650.511">Home</tspan></text>
<text id="Cards" fill="#E8EDDF" xml:space="preserve" style="white-space: pre" font-family="Red Hat Display" font-size="9.48341" letter-spacing="0em"><tspan x="107.726" y="650.511">Cards</tspan></text>
<text id="Transactions" fill="#515D3D" xml:space="preserve" style="white-space: pre" font-family="Red Hat Display" font-size="9.48341" letter-spacing="0em"><tspan x="160.694" y="650.511">Transactions</tspan></text>
<text id="Profile" fill="#515D3D" xml:space="preserve" style="white-space: pre" font-family="Red Hat Display" font-size="9.48341" letter-spacing="0em"><tspan x="242.9" y="650.511">Profile</tspan></text>
<path id="Vector" d="M191.289 627.486L195.201 631.398L191.289 635.31L190.171 634.192L192.175 632.187L181.766 632.188V630.607H192.175L190.171 628.603L191.289 627.486ZM184.887 619.583L186.005 620.7L184.001 622.705H194.41V624.285H184.001L186.005 626.289L184.887 627.407L180.976 623.495L184.887 619.583V619.583Z" fill="#515D3D"/>
<path id="Vector_2" d="M257.322 631.437C260.216 631.437 262.747 632.682 264.124 634.539L262.668 635.227C261.547 633.9 259.572 633.018 257.322 633.018C255.072 633.018 253.096 633.9 251.975 635.227L250.521 634.538C251.897 632.681 254.428 631.437 257.322 631.437ZM257.322 619.583C258.37 619.583 259.375 619.999 260.116 620.74C260.857 621.481 261.273 622.486 261.273 623.534V625.905C261.273 626.924 260.88 627.902 260.176 628.638C259.471 629.373 258.51 629.809 257.493 629.853L257.322 629.857C256.274 629.857 255.269 629.44 254.528 628.699C253.787 627.958 253.37 626.953 253.37 625.905V623.534C253.37 622.516 253.763 621.537 254.468 620.802C255.172 620.066 256.133 619.631 257.15 619.587L257.322 619.583ZM257.322 621.164C256.717 621.164 256.135 621.395 255.695 621.809C255.255 622.224 254.99 622.792 254.955 623.395L254.951 623.534V625.905C254.95 626.522 255.19 627.115 255.62 627.558C256.05 628.001 256.635 628.259 257.252 628.277C257.869 628.296 258.469 628.072 258.924 627.655C259.379 627.238 259.653 626.66 259.689 626.044L259.693 625.905V623.534C259.693 622.906 259.443 622.303 258.998 621.858C258.554 621.413 257.95 621.164 257.322 621.164V621.164Z" fill="#515D3D"/>
<path id="Vector_3" d="M52.1587 632.807H56.9004V625.677L51.3684 621.374L45.8364 625.677V632.807H50.5781V628.065H52.1587V632.807ZM58.481 633.597C58.481 633.806 58.3977 634.007 58.2495 634.156C58.1013 634.304 57.9003 634.387 57.6907 634.387H45.0461C44.8365 634.387 44.6355 634.304 44.4873 634.156C44.3391 634.007 44.2559 633.806 44.2559 633.597V625.291C44.2558 625.171 44.2832 625.052 44.3361 624.944C44.389 624.835 44.4659 624.741 44.5609 624.667L50.8832 619.75C51.0219 619.642 51.1927 619.583 51.3684 619.583C51.5442 619.583 51.7149 619.642 51.8537 619.75L58.1759 624.667C58.271 624.741 58.3479 624.835 58.4008 624.944C58.4536 625.052 58.4811 625.171 58.481 625.291V633.597V633.597Z" fill="#515D3D"/>
<path id="Vector_4" d="M128.026 625.115V633.018C128.026 633.227 127.943 633.428 127.795 633.577C127.647 633.725 127.446 633.808 127.236 633.808H113.011C112.801 633.808 112.6 633.725 112.452 633.577C112.304 633.428 112.221 633.227 112.221 633.018V625.115H128.026ZM128.026 623.534H112.221V620.373C112.221 620.164 112.304 619.963 112.452 619.814C112.6 619.666 112.801 619.583 113.011 619.583H127.236C127.446 619.583 127.647 619.666 127.795 619.814C127.943 619.963 128.026 620.164 128.026 620.373V623.534ZM122.494 629.857V631.437H125.656V629.857H122.494Z" fill="#D2F988"/>
</g>
<path d="M0 604.568H308.211V602.987H0V604.568Z" fill="#1A1C15" mask="url(#path-94-inside-1_404_1172)"/>
</g>
<circle id="Ellipse 253_2" cx="256.843" cy="71.916" r="22.128" fill="#2F3329"/>
<path id="Vector_5" d="M256.531 75.0769C259.425 75.0769 261.956 76.3216 263.333 78.1788L261.877 78.8671C260.756 77.5394 258.781 76.6575 256.531 76.6575C254.281 76.6575 252.305 77.5394 251.184 78.8671L249.729 78.178C251.106 76.3208 253.637 75.0769 256.531 75.0769ZM256.531 63.2227C257.579 63.2227 258.584 63.639 259.325 64.38C260.066 65.121 260.482 66.1261 260.482 67.1741V69.5449C260.482 70.5632 260.089 71.5421 259.385 72.2776C258.68 73.013 257.719 73.4482 256.702 73.4924L256.531 73.4964C255.483 73.4964 254.478 73.08 253.737 72.339C252.996 71.598 252.579 70.5929 252.579 69.5449V67.1741C252.579 66.1558 252.972 65.1769 253.677 64.4415C254.381 63.706 255.342 63.2708 256.359 63.2266L256.531 63.2227ZM256.531 64.8032C255.926 64.8032 255.344 65.0342 254.904 65.4491C254.464 65.864 254.199 66.4313 254.164 67.035L254.16 67.1741V69.5449C254.159 70.1621 254.399 70.7551 254.829 71.1981C255.259 71.641 255.844 71.8989 256.461 71.917C257.078 71.9352 257.678 71.712 258.133 71.295C258.588 70.8781 258.862 70.3001 258.898 69.684L258.902 69.5449V67.1741C258.902 66.5453 258.652 65.9423 258.207 65.4976C257.763 65.053 257.159 64.8032 256.531 64.8032Z" fill="#A9C96B"/>
<text id="WARLISON M SILVA" fill="#E8EDDF" xml:space="preserve" style="white-space: pre" font-family="M PLUS 1" font-size="14.2251" font-weight="500" letter-spacing="0em"><tspan x="14.1262" y="80.2153">WARLISON M SILVA</tspan></text>
<text id="Ol&#195;&#161;," fill="#7C7C7D" xml:space="preserve" style="white-space: pre" font-family="Red Hat Display" font-size="11.064" letter-spacing="0em"><tspan x="21.5218" y="62.2324">Ol&#xe1;,</tspan></text>
<rect id="Rectangle 2121" x="24.499" y="332.71" width="259.213" height="69.545" rx="11.064" fill="#12140D"/>
<text id="&#226;&#128;&#162;&#226;&#128;&#162;&#226;&#128;&#162;&#226;&#128;&#162; 4259" fill="#FBFFF5" xml:space="preserve" style="white-space: pre" font-family="M PLUS 1" font-size="10.6344" font-weight="600" letter-spacing="0.05em"><tspan x="96.415" y="388.892">&#x2022;&#x2022;&#x2022;&#x2022; 4259</tspan></text>
<text id="WARLISON M SILVA_2" fill="#FBFFF5" xml:space="preserve" style="white-space: pre" font-family="M PLUS 1" font-size="10.6344" font-weight="600" letter-spacing="0.05em"><tspan x="96.415" y="372.297">WARLISON M SILVA</tspan></text>
<text id="Criar cart&#195;&#163;o virtual" fill="#A9C96B" xml:space="preserve" style="white-space: pre" font-family="Red Hat Display" font-size="11.064" letter-spacing="0em"><tspan x="46.627" y="571.175">Criar cart&#xe3;o virtual</tspan></text>
<text id="Cart&#195;&#163;o de cr&#195;&#169;dito" fill="#7C7C7D" xml:space="preserve" style="white-space: pre" font-family="Red Hat Display" font-size="11.064" letter-spacing="0em"><tspan x="92.5089" y="357.008">Cart&#xe3;o de cr&#xe9;dito</tspan></text>
<text id="Cart&#195;&#181;es f&#195;&#173;sicos" fill="#FBFFF5" xml:space="preserve" style="white-space: pre" font-family="M PLUS 1" font-size="18.9668" font-weight="500" letter-spacing="0em"><tspan x="21.3609" y="314.755">Cart&#xf5;es f&#xed;sicos</tspan></text>
<text id="Cart&#195;&#181;es virtuais" fill="#FBFFF5" xml:space="preserve" style="white-space: pre" font-family="M PLUS 1" font-size="18.9668" font-weight="500" letter-spacing="0em"><tspan x="20.5976" y="453.055">Cart&#xf5;es virtuais</tspan></text>
<g id="Ellipse 253_3" filter="url(#filter5_f_404_1172)">
<circle cx="149.759" cy="200.337" r="42.2802" fill="#515D3D"/>
</g>
<path id="Vector_6" d="M263.301 366.517L259.062 362.278L260.179 361.16L266.326 367.307L260.179 373.454L259.062 372.336L263.301 368.097H253.682V366.517H263.301Z" fill="#A9C96B"/>
<path id="Vector_7" d="M30.0308 565.053V560.312H31.6113V565.053H36.353V566.634H31.6113V571.376H30.0308V566.634H25.2891V565.053H30.0308Z" fill="#A9C96B"/>
<rect id="Rectangle 2121_2" x="35.5625" y="346.145" width="44.2559" height="44.2559" rx="7.90284" fill="#2F3329"/>
<path id="Vector_8" d="M50.5784 361.16H64.8035C65.0131 361.16 65.2141 361.243 65.3623 361.392C65.5105 361.54 65.5938 361.741 65.5938 361.95V374.595C65.5938 374.805 65.5105 375.006 65.3623 375.154C65.2141 375.302 65.0131 375.385 64.8035 375.385H50.5784C50.3688 375.385 50.1678 375.302 50.0196 375.154C49.8713 375.006 49.7881 374.805 49.7881 374.595V361.95C49.7881 361.741 49.8713 361.54 50.0196 361.392C50.1678 361.243 50.3688 361.16 50.5784 361.16ZM64.0132 367.482H51.3687V373.805H64.0132V367.482ZM64.0132 365.902V362.741H51.3687V365.902H64.0132ZM59.2715 370.644H62.4326V372.224H59.2715V370.644Z" fill="#D2F988"/>
<rect id="Rectangle 2122" x="24.499" y="471.009" width="259.213" height="69.545" rx="11.064" fill="#12140D"/>
<text id="&#226;&#128;&#162;&#226;&#128;&#162;&#226;&#128;&#162;&#226;&#128;&#162; 6985" fill="#FBFFF5" xml:space="preserve" style="white-space: pre" font-family="M PLUS 1" font-size="10.6344" font-weight="600" letter-spacing="0.05em"><tspan x="96.415" y="527.192">&#x2022;&#x2022;&#x2022;&#x2022; 6985</tspan></text>
<text id="WARLISON M SILVA_3" fill="#FBFFF5" xml:space="preserve" style="white-space: pre" font-family="M PLUS 1" font-size="10.6344" font-weight="600" letter-spacing="0.05em"><tspan x="96.415" y="510.597">WARLISON M SILVA</tspan></text>
<text id="Cart&#195;&#163;o de cr&#195;&#169;dito_2" fill="#949494" xml:space="preserve" style="white-space: pre" font-family="Red Hat Display" font-size="11.064" letter-spacing="0em"><tspan x="92.5089" y="495.308">Cart&#xe3;o de cr&#xe9;dito</tspan></text>
<path id="Vector_9" d="M263.301 504.817L259.062 500.577L260.179 499.46L266.326 505.607L260.179 511.754L259.062 510.636L263.301 506.397H253.682V504.817H263.301Z" fill="#A9C96B"/>
<rect id="Rectangle 2123" x="35.5625" y="484.444" width="44.2559" height="44.2559" rx="7.90284" fill="#2F3329"/>
<path id="Vector_10" d="M50.5784 499.46H64.8035C65.0131 499.46 65.2141 499.543 65.3623 499.691C65.5105 499.84 65.5938 500.041 65.5938 500.25V512.895C65.5938 513.104 65.5105 513.305 65.3623 513.454C65.2141 513.602 65.0131 513.685 64.8035 513.685H50.5784C50.3688 513.685 50.1678 513.602 50.0196 513.454C49.8713 513.305 49.7881 513.104 49.7881 512.895V500.25C49.7881 500.041 49.8713 499.84 50.0196 499.691C50.1678 499.543 50.3688 499.46 50.5784 499.46ZM64.0132 505.782H51.3687V512.105H64.0132V505.782ZM64.0132 504.202V501.041H51.3687V504.202H64.0132ZM59.2715 508.943H62.4326V510.524H59.2715V508.943Z" fill="#D2F988"/>
</g>
</g>
<g id="iPhone13Pro25" class="iPhone13Pro25">
<g clip-path="url(#clip3_404_1172)">
<rect width="309" height="667" rx="36" fill="#060802"/>
<g id="notifications_4">
<rect width="308.211" height="31.6114" fill="#060802"/>
<text id="19:07_4" fill="#F2F7E9" xml:space="preserve" style="white-space: pre" font-family="Inter" font-size="12.6446" font-weight="bold" letter-spacing="0em"><tspan x="35.1332" y="23.9525">19:07</tspan></text>
<g id="Group 5230_4">
<rect id="Rectangle 2095_4" x="229.183" y="17.2319" width="2.31303" height="2.77563" rx="0.693908" fill="#FBFFF5"/>
<rect id="Rectangle 2099_4" x="229.183" y="21.3955" width="2.31303" height="2.31303" rx="0.693908" fill="#FBFFF5"/>
<rect id="Rectangle 2100_4" x="232.883" y="21.3955" width="2.31303" height="2.31303" rx="0.693908" fill="#FBFFF5"/>
<rect id="Rectangle 2101_4" x="236.584" y="21.3955" width="2.31303" height="2.31303" rx="0.693908" fill="#FBFFF5"/>
<rect id="Rectangle 2102_4" x="240.285" y="21.3955" width="2.31303" height="2.31303" rx="0.693908" fill="#FBFFF5"/>
<rect id="Rectangle 2096_4" x="232.883" y="16.3071" width="2.31303" height="3.70084" rx="0.693908" fill="#FBFFF5"/>
<rect id="Rectangle 2097_4" x="236.584" y="15.3818" width="2.31303" height="4.62606" rx="0.693908" fill="#FBFFF5"/>
<rect id="Rectangle 2098_4" x="240.285" y="14.2251" width="2.31303" height="5.78257" rx="0.693908" fill="#FBFFF5"/>
</g>
<g id="Vector 1104_4">
<path d="M248.685 18.0018L248.195 17.5113C247.99 17.3069 248.021 16.9666 248.263 16.8073C252.543 13.9801 255.012 14.1609 258.914 16.8053C259.152 16.9663 259.181 17.3041 258.978 17.507L258.484 18.0012C258.326 18.1596 258.077 18.181 257.891 18.0561C254.557 15.817 252.571 15.8527 249.278 18.0572C249.092 18.1817 248.843 18.16 248.685 18.0018Z" fill="#F2F7E9"/>
<path d="M250.663 20.1219L250.199 19.704C249.978 19.5053 250 19.1518 250.248 18.9887C252.689 17.3851 254.267 17.3317 256.803 18.989C257.052 19.1516 257.074 19.5056 256.853 19.7045L256.394 20.1183C256.237 20.2588 256.006 20.275 255.827 20.1652C254.074 19.0903 252.978 19.1225 251.224 20.1719C251.046 20.2784 250.818 20.2607 250.663 20.1219Z" fill="#F2F7E9"/>
<path d="M253.257 22.8052L252.351 21.8985C252.149 21.6967 252.175 21.3587 252.42 21.2132C253.312 20.6848 253.931 20.7169 254.751 21.2114C254.995 21.3585 255.021 21.696 254.819 21.8975L253.911 22.8052C253.731 22.9859 253.438 22.9859 253.257 22.8052Z" fill="#F2F7E9"/>
</g>
<g id="Group 5231_4">
<rect id="Rectangle 2103_4" x="264.572" y="14.2251" width="17.3477" height="9.48341" rx="2.54433" fill="#FBFFF5" fill-opacity="0.3"/>
<rect id="Rectangle 2104_4" x="264.572" y="14.2251" width="14.3408" height="9.48341" rx="2.54433" fill="#FBFFF5"/>
<path id="Vector 1103_4" d="M282.613 20.3543V17.6943C283.192 18.0413 283.491 18.3171 283.538 18.9665C283.538 19.5448 283.307 20.0074 282.613 20.3543Z" fill="#FBFFF5" fill-opacity="0.3"/>
</g>
<text id="77_4" fill="#12140D" xml:space="preserve" style="white-space: pre" font-family="Inter" font-size="7.90284" font-weight="bold" letter-spacing="0em"><tspan x="267.339" y="21.5989">77</tspan></text>
</g>
<g id="Component 2_2">
<g clip-path="url(#clip4_404_1172)">
<mask id="path-143-inside-2_404_1172" fill="white">
<path d="M0 603.777H308.211V667H0V603.777Z"/>
</mask>
<path d="M0 603.777H308.211V667H0V603.777Z" fill="#060802"/>
<rect id="Rectangle 3645" x="156.477" y="603.777" width="63.2228" height="63.2228" fill="#2F3329"/>
<text id="Home_2" fill="#515D3D" xml:space="preserve" style="white-space: pre" font-family="Red Hat Display" font-size="9.48341" letter-spacing="0em"><tspan x="37.9865" y="650.511">Home</tspan></text>
<text id="Cards_2" fill="#515D3D" xml:space="preserve" style="white-space: pre" font-family="Red Hat Display" font-size="9.48341" letter-spacing="0em"><tspan x="107.726" y="650.511">Cards</tspan></text>
<text id="Transactions_2" fill="#E8EDDF" xml:space="preserve" style="white-space: pre" font-family="Red Hat Display" font-size="9.48341" letter-spacing="0em"><tspan x="160.694" y="650.511">Transactions</tspan></text>
<text id="Profile_2" fill="#515D3D" xml:space="preserve" style="white-space: pre" font-family="Red Hat Display" font-size="9.48341" letter-spacing="0em"><tspan x="242.9" y="650.511">Profile</tspan></text>
<path id="Vector_11" d="M191.289 627.486L195.201 631.398L191.289 635.31L190.171 634.192L192.175 632.187L181.766 632.188V630.607H192.175L190.171 628.603L191.289 627.486ZM184.887 619.583L186.005 620.7L184.001 622.705H194.41V624.285H184.001L186.005 626.289L184.887 627.407L180.976 623.495L184.887 619.583V619.583Z" fill="#D2F988"/>
<path id="Vector_12" d="M257.322 631.437C260.216 631.437 262.747 632.682 264.124 634.539L262.668 635.227C261.547 633.9 259.572 633.018 257.322 633.018C255.072 633.018 253.096 633.9 251.975 635.227L250.521 634.538C251.897 632.681 254.428 631.437 257.322 631.437ZM257.322 619.583C258.37 619.583 259.375 619.999 260.116 620.74C260.857 621.481 261.273 622.486 261.273 623.534V625.905C261.273 626.924 260.88 627.902 260.176 628.638C259.471 629.373 258.51 629.809 257.493 629.853L257.322 629.857C256.274 629.857 255.269 629.44 254.528 628.699C253.787 627.958 253.37 626.953 253.37 625.905V623.534C253.37 622.516 253.763 621.537 254.468 620.802C255.172 620.066 256.133 619.631 257.15 619.587L257.322 619.583ZM257.322 621.164C256.717 621.164 256.135 621.395 255.695 621.809C255.255 622.224 254.99 622.792 254.955 623.395L254.951 623.534V625.905C254.95 626.522 255.19 627.115 255.62 627.558C256.05 628.001 256.635 628.259 257.252 628.277C257.869 628.296 258.469 628.072 258.924 627.655C259.379 627.238 259.653 626.66 259.689 626.044L259.693 625.905V623.534C259.693 622.906 259.443 622.303 258.998 621.858C258.554 621.413 257.95 621.164 257.322 621.164V621.164Z" fill="#515D3D"/>
<path id="Vector_13" d="M52.1587 632.807H56.9004V625.677L51.3684 621.374L45.8364 625.677V632.807H50.5781V628.065H52.1587V632.807ZM58.481 633.597C58.481 633.806 58.3977 634.007 58.2495 634.156C58.1013 634.304 57.9003 634.387 57.6907 634.387H45.0461C44.8365 634.387 44.6355 634.304 44.4873 634.156C44.3391 634.007 44.2559 633.806 44.2559 633.597V625.291C44.2558 625.171 44.2832 625.052 44.3361 624.944C44.389 624.835 44.4659 624.741 44.5609 624.667L50.8832 619.75C51.0219 619.642 51.1927 619.583 51.3684 619.583C51.5442 619.583 51.7149 619.642 51.8537 619.75L58.1759 624.667C58.271 624.741 58.3479 624.835 58.4008 624.944C58.4536 625.052 58.4811 625.171 58.481 625.291V633.597V633.597Z" fill="#515D3D"/>
<path id="Vector_14" d="M113.011 619.713L127.236 619.59C127.445 619.588 127.647 619.669 127.796 619.816C127.946 619.963 128.031 620.163 128.033 620.373L128.143 633.017C128.144 633.227 128.063 633.428 127.916 633.578C127.769 633.727 127.569 633.812 127.359 633.814L113.135 633.938C112.925 633.94 112.723 633.858 112.574 633.711C112.424 633.564 112.339 633.364 112.337 633.155L112.228 620.51C112.226 620.301 112.307 620.099 112.454 619.95C112.601 619.8 112.801 619.715 113.011 619.713V619.713ZM126.5 625.919L113.856 626.029L113.911 632.351L126.555 632.241L126.5 625.919ZM126.487 624.338L126.459 621.177L113.815 621.287L113.842 624.448L126.487 624.338ZM121.786 629.121L124.947 629.093L124.961 630.674L121.8 630.701L121.786 629.121Z" fill="#515D3D"/>
</g>
<path d="M0 604.568H308.211V602.987H0V604.568Z" fill="#1A1C15" mask="url(#path-143-inside-2_404_1172)"/>
</g>
<text id="R$ 3.650,00" fill="#FBFFF5" xml:space="preserve" style="white-space: pre" font-family="M PLUS 1" font-size="25.2891" font-weight="500" letter-spacing="0em"><tspan x="73.7397" y="180.132">R$ 3.650,00</tspan></text>
<text id="Total Balance" fill="#E8EDDF" xml:space="preserve" style="white-space: pre" font-family="M PLUS 1" font-size="14.2251" font-weight="500" letter-spacing="0em"><tspan x="108.475" y="141.067">Total Balance</tspan></text>
<text id="Fatura atual" fill="#646465" xml:space="preserve" style="white-space: pre" font-family="Red Hat Display" font-size="11.064" letter-spacing="0em"><tspan x="125.782" y="201.322">Fatura atual</tspan></text>
<text id="4K" fill="#7C7C7D" xml:space="preserve" style="white-space: pre" font-family="Red Hat Display" font-size="11.064" letter-spacing="0em"><tspan x="33.3521" y="253.481">4K</tspan></text>
<text id="3K" fill="#7C7C7D" xml:space="preserve" style="white-space: pre" font-family="Red Hat Display" font-size="11.064" letter-spacing="0em"><tspan x="33.5573" y="304.059">3K</tspan></text>
<text id="2K" fill="#7C7C7D" xml:space="preserve" style="white-space: pre" font-family="Red Hat Display" font-size="11.064" letter-spacing="0em"><tspan x="33.2788" y="354.638">2K</tspan></text>
<text id="1K" fill="#7C7C7D" xml:space="preserve" style="white-space: pre" font-family="Red Hat Display" font-size="11.064" letter-spacing="0em"><tspan x="35.2591" y="405.216">1K</tspan></text>
<text id="MAI" fill="#646465" xml:space="preserve" style="white-space: pre" font-family="Red Hat Display" font-size="11.064" letter-spacing="0em"><tspan x="61.9228" y="432.875">MAI</tspan></text>
<text id="JUN" fill="#646465" xml:space="preserve" style="white-space: pre" font-family="Red Hat Display" font-size="11.064" letter-spacing="0em"><tspan x="107.758" y="432.875">JUN</tspan></text>
<text id="JUL" fill="#646465" xml:space="preserve" style="white-space: pre" font-family="Red Hat Display" font-size="11.064" letter-spacing="0em"><tspan x="156.926" y="432.875">JUL</tspan></text>
<text id="AGO" fill="#646465" xml:space="preserve" style="white-space: pre" font-family="Red Hat Display" font-size="11.064" letter-spacing="0em"><tspan x="204.001" y="432.875">AGO</tspan></text>
<text id="SET" fill="#646465" xml:space="preserve" style="white-space: pre" font-family="Red Hat Display" font-size="11.064" letter-spacing="0em"><tspan x="255.622" y="432.875">SET</tspan></text>
<path id="Vector 1114" d="M54.5293 249.73H282.921" stroke="#2F3329" stroke-width="0.790284"/>
<path id="Vector 1115" d="M54.5293 300.308H282.921" stroke="#2F3329" stroke-width="0.790284"/>
<path id="Vector 1116" d="M54.5293 350.886H282.921" stroke="#2F3329" stroke-width="0.790284"/>
<path id="Vector 1117" d="M54.5293 401.464H282.921" stroke="#2F3329" stroke-width="0.790284"/>
<path id="Vector 1115_2" d="M59.2715 384.854H93.3684C107.708 386.043 103.884 311.927 115.038 311.927C123.96 311.927 128.103 356.318 138.937 356.318C148.816 356.318 146.236 334.122 154.552 334.122C181.638 334.122 168.254 259.213 182.913 259.213C195.659 259.213 191.517 307.567 204.582 307.567H231.668C240.909 307.567 238.997 334.122 249.513 334.122C261.623 334.122 265.446 356.318 276.6 356.318" stroke="#A9C96B" stroke-width="1.58057"/>
<path id="Vector 1118" d="M93.3684 384.854H59.2715V404.231H276.6V356.318C265.446 356.318 261.623 334.122 249.513 334.122C238.997 334.122 240.909 307.567 231.668 307.567H204.582C191.517 307.567 195.659 259.213 182.913 259.213C168.254 259.213 181.638 334.122 154.552 334.122C146.236 334.122 148.816 356.318 138.937 356.318C128.103 356.318 123.96 311.927 115.038 311.927C103.884 311.927 107.708 386.043 93.3684 384.854Z" fill="url(#paint15_linear_404_1172)"/>
<g id="Group 5233">
<path id="Vector 1116_2" d="M114.196 299.122L106.688 291.615H121.704L114.196 299.122Z" fill="#A9C96B"/>
<rect id="Rectangle 2121_3" x="76.6572" y="264.745" width="75.8673" height="26.8697" rx="4.74171" fill="#A9C96B"/>
</g>
<circle id="Ellipse 257" cx="114.591" cy="312.162" r="3.95142" fill="#A9C96B"/>
<text id="R$ 520,00" fill="#12140D" xml:space="preserve" style="white-space: pre" font-family="M PLUS 1" font-size="11.064" font-weight="500" letter-spacing="0em"><tspan x="86.3594" y="282.601">R$ 520,00</tspan></text>
<g id="Group 27527">
<text id="Sa&#195;&#186;de" fill="#E8EDDF" xml:space="preserve" style="white-space: pre" font-family="Red Hat Display" font-size="12.6446" letter-spacing="0em"><tspan x="80.6094" y="521.371">Sa&#xfa;de</tspan></text>
<text id="Boletos" fill="#E8EDDF" xml:space="preserve" style="white-space: pre" font-family="Red Hat Display" font-size="12.6446" letter-spacing="0em"><tspan x="80.6094" y="545.079">Boletos</tspan></text>
<text id="Alimenta&#195;&#167;&#195;&#163;o" fill="#E8EDDF" xml:space="preserve" style="white-space: pre" font-family="Red Hat Display" font-size="12.6446" letter-spacing="0em"><tspan x="80.6094" y="568.788">Alimenta&#xe7;&#xe3;o</tspan></text>
<g id="Group 27526">
<path id="Ellipse 258" d="M272.648 524.749C272.648 548.754 253.188 568.214 229.182 568.214C205.177 568.214 185.717 548.754 185.717 524.749C185.717 500.743 205.177 481.283 229.182 481.283C253.188 481.283 272.648 500.743 272.648 524.749ZM203.308 524.749C203.308 539.039 214.892 550.623 229.182 550.623C243.473 550.623 255.057 539.039 255.057 524.749C255.057 510.459 243.473 498.874 229.182 498.874C214.892 498.874 203.308 510.459 203.308 524.749Z" fill="#FBFFF5" fill-opacity="0.6"/>
<path id="Ellipse 259" d="M269.268 507.944C265.609 499.215 259.2 491.919 251.016 487.165C242.832 482.411 233.32 480.457 223.924 481.602C214.529 482.747 205.764 486.928 198.961 493.509C192.158 500.09 187.69 508.711 186.234 518.063L203.616 520.769C204.482 515.202 207.143 510.07 211.192 506.152C215.242 502.235 220.459 499.746 226.052 499.064C231.645 498.383 237.308 499.545 242.18 502.376C247.052 505.206 250.867 509.549 253.045 514.745L269.268 507.944Z" fill="#A9C96B"/>
<path id="Ellipse 260" d="M186.213 518.201C185.275 524.352 185.67 530.633 187.369 536.618C189.068 542.604 192.032 548.155 196.062 552.896L209.466 541.505C207.067 538.682 205.303 535.378 204.291 531.815C203.28 528.251 203.045 524.513 203.603 520.851L186.213 518.201Z" fill="#515D3D"/>
<path id="Ellipse 261" d="M195.651 552.405C202.31 560.479 211.659 565.879 221.98 567.614C232.301 569.348 242.902 567.3 251.834 561.845C260.767 556.391 267.431 547.897 270.603 537.923C273.776 527.95 273.243 517.166 269.102 507.554L252.946 514.513C255.411 520.235 255.728 526.654 253.84 532.591C251.951 538.529 247.984 543.585 242.667 546.832C237.35 550.079 231.039 551.298 224.895 550.266C218.751 549.233 213.185 546.019 209.221 541.212L195.651 552.405Z" fill="#DCFD9E"/>
</g>
<text id="R$ 1.365,00" fill="#FBFFF5" xml:space="preserve" style="white-space: pre" font-family="M PLUS 1" font-size="18.9668" font-weight="500" letter-spacing="0em"><tspan x="56.9004" y="494.15">R$ 1.365,00</tspan></text>
<rect id="Rectangle 3611" x="60.8516" y="511.314" width="11.064" height="11.064" fill="#A9C96B"/>
<rect id="Rectangle 3612" x="60.8516" y="535.022" width="11.064" height="11.064" fill="#515D3D"/>
<rect id="Rectangle 3613" x="60.8516" y="558.731" width="11.064" height="11.064" fill="#DCFD9E"/>
</g>
<path id="Vector_15" d="M27.5242 59.8863L31.7633 55.6472L30.6458 54.5298L24.499 60.6766L30.6458 66.8234L31.7633 65.706L27.5242 61.4669H37.1436V59.8863H27.5242Z" fill="#A9C96B"/>
<text id="Gr&#195;&#161;ficos e Resumos" fill="#E8EDDF" xml:space="preserve" style="white-space: pre" font-family="M PLUS 1" font-size="14.2251" font-weight="500" letter-spacing="0em"><tspan x="86.5644" y="66.7803">Gr&#xe1;ficos e Resumos</tspan></text>
<path id="Vector_16" d="M275.019 68.7549C270.654 68.7549 267.116 65.2168 267.116 60.8521C267.116 56.4873 270.654 52.9492 275.019 52.9492C279.384 52.9492 282.922 56.4873 282.922 60.8521C282.922 65.2168 279.384 68.7549 275.019 68.7549ZM275.019 67.1743C276.696 67.1743 278.304 66.5082 279.49 65.3226C280.675 64.1369 281.341 62.5288 281.341 60.8521C281.341 59.1753 280.675 57.5672 279.49 56.3815C278.304 55.1959 276.696 54.5298 275.019 54.5298C273.342 54.5298 271.734 55.1959 270.549 56.3815C269.363 57.5672 268.697 59.1753 268.697 60.8521C268.697 62.5288 269.363 64.1369 270.549 65.3226C271.734 66.5082 273.342 67.1743 275.019 67.1743ZM274.229 63.2229H275.809V64.8035H274.229V63.2229ZM275.809 61.9229V62.4326H274.229V61.2472C274.229 61.0376 274.312 60.8366 274.46 60.6884C274.608 60.5402 274.809 60.4569 275.019 60.4569C275.244 60.4569 275.463 60.3931 275.653 60.273C275.843 60.1529 275.994 59.9815 276.09 59.7785C276.187 59.5756 276.223 59.3496 276.196 59.1267C276.168 58.9039 276.078 58.6935 275.936 58.5199C275.793 58.3463 275.605 58.2166 275.391 58.1461C275.178 58.0756 274.95 58.067 274.732 58.1214C274.514 58.1758 274.316 58.2909 274.161 58.4534C274.006 58.6159 273.901 58.819 273.857 59.0392L272.306 58.7286C272.402 58.2481 272.624 57.8019 272.949 57.4353C273.274 57.0688 273.691 56.7952 274.157 56.6425C274.622 56.4897 275.12 56.4634 275.599 56.566C276.078 56.6687 276.521 56.8968 276.883 57.2269C277.245 57.557 277.513 57.9773 277.659 58.4449C277.806 58.9125 277.825 59.4105 277.716 59.8882C277.607 60.3658 277.373 60.8058 277.038 61.1633C276.703 61.5208 276.279 61.7829 275.809 61.9229Z" fill="#A9C96B"/>
</g>
</g>
<g id="iPhone13Pro26" class="iPhone13Pro26">
<g clip-path="url(#clip5_404_1172)">
<rect width="309" height="667" rx="36" fill="#060802"/>
<rect id="Rectangle 2127" x="24.499" y="562.683" width="259.213" height="56.9005" rx="11.064" fill="#12140D"/>
<text id="Configurar" fill="#FBFFF5" xml:space="preserve" style="white-space: pre" font-family="M PLUS 1" font-size="12.6446" font-weight="500" letter-spacing="0em"><tspan x="72.7061" y="596.952">Configurar</tspan></text>
<path id="Vector_17" d="M263.301 590.167L259.062 585.928L260.179 584.811L266.326 590.957L260.179 597.104L259.062 595.987L263.301 591.748H253.682V590.167H263.301Z" fill="#A9C96B"/>
<path id="Vector_18" d="M50.9735 582.439L58.4812 586.786V595.479L50.9735 599.826L43.4658 595.479V586.786L50.9735 582.439ZM50.9735 584.266L45.0464 587.697V594.568L50.9735 597.999L56.9007 594.568V587.697L50.9735 584.266ZM50.9735 594.294C50.1351 594.294 49.3311 593.961 48.7383 593.368C48.1454 592.775 47.8124 591.971 47.8124 591.133C47.8124 590.294 48.1454 589.49 48.7383 588.897C49.3311 588.304 50.1351 587.971 50.9735 587.971C51.8119 587.971 52.616 588.304 53.2088 588.897C53.8016 589.49 54.1347 590.294 54.1347 591.133C54.1347 591.971 53.8016 592.775 53.2088 593.368C52.616 593.961 51.8119 594.294 50.9735 594.294ZM50.9735 592.713C51.3927 592.713 51.7947 592.547 52.0912 592.25C52.3876 591.954 52.5541 591.552 52.5541 591.133C52.5541 590.713 52.3876 590.311 52.0912 590.015C51.7947 589.719 51.3927 589.552 50.9735 589.552C50.5543 589.552 50.1523 589.719 49.8559 590.015C49.5595 590.311 49.393 590.713 49.393 591.133C49.393 591.552 49.5595 591.954 49.8559 592.25C50.1523 592.547 50.5543 592.713 50.9735 592.713Z" fill="#A9C96B"/>
<rect id="Rectangle 2119" x="24.8942" y="141.856" width="258.423" height="151.735" rx="7.5077" fill="url(#paint16_linear_404_1172)" stroke="#515D3D" stroke-width="0.790284"/>
<g id="notifications_5">
<rect width="308.211" height="31.6114" fill="#060802"/>
<text id="19:07_5" fill="#F2F7E9" xml:space="preserve" style="white-space: pre" font-family="Inter" font-size="12.6446" font-weight="bold" letter-spacing="0em"><tspan x="35.1332" y="23.9525">19:07</tspan></text>
<g id="Group 5230_5">
<rect id="Rectangle 2095_5" x="229.183" y="17.2319" width="2.31303" height="2.77563" rx="0.693908" fill="#FBFFF5"/>
<rect id="Rectangle 2099_5" x="229.183" y="21.3955" width="2.31303" height="2.31303" rx="0.693908" fill="#FBFFF5"/>
<rect id="Rectangle 2100_5" x="232.883" y="21.3955" width="2.31303" height="2.31303" rx="0.693908" fill="#FBFFF5"/>
<rect id="Rectangle 2101_5" x="236.584" y="21.3955" width="2.31303" height="2.31303" rx="0.693908" fill="#FBFFF5"/>
<rect id="Rectangle 2102_5" x="240.285" y="21.3955" width="2.31303" height="2.31303" rx="0.693908" fill="#FBFFF5"/>
<rect id="Rectangle 2096_5" x="232.883" y="16.3071" width="2.31303" height="3.70084" rx="0.693908" fill="#FBFFF5"/>
<rect id="Rectangle 2097_5" x="236.584" y="15.3818" width="2.31303" height="4.62606" rx="0.693908" fill="#FBFFF5"/>
<rect id="Rectangle 2098_5" x="240.285" y="14.2251" width="2.31303" height="5.78257" rx="0.693908" fill="#FBFFF5"/>
</g>
<g id="Vector 1104_5">
<path d="M248.685 18.0018L248.195 17.5113C247.99 17.3069 248.021 16.9666 248.263 16.8073C252.543 13.9801 255.012 14.1609 258.914 16.8053C259.152 16.9663 259.181 17.3041 258.978 17.507L258.484 18.0012C258.326 18.1596 258.077 18.181 257.891 18.0561C254.557 15.817 252.571 15.8527 249.278 18.0572C249.092 18.1817 248.843 18.16 248.685 18.0018Z" fill="#F2F7E9"/>
<path d="M250.663 20.1219L250.199 19.704C249.978 19.5053 250 19.1518 250.248 18.9887C252.689 17.3851 254.267 17.3317 256.803 18.989C257.052 19.1516 257.074 19.5056 256.853 19.7045L256.394 20.1183C256.237 20.2588 256.006 20.275 255.827 20.1652C254.074 19.0903 252.978 19.1225 251.224 20.1719C251.046 20.2784 250.818 20.2607 250.663 20.1219Z" fill="#F2F7E9"/>
<path d="M253.257 22.8052L252.351 21.8985C252.149 21.6967 252.175 21.3587 252.42 21.2132C253.312 20.6848 253.931 20.7169 254.751 21.2114C254.995 21.3585 255.021 21.696 254.819 21.8975L253.911 22.8052C253.731 22.9859 253.438 22.9859 253.257 22.8052Z" fill="#F2F7E9"/>
</g>
<g id="Group 5231_5">
<rect id="Rectangle 2103_5" x="264.572" y="14.2251" width="17.3477" height="9.48341" rx="2.54433" fill="#FBFFF5" fill-opacity="0.3"/>
<rect id="Rectangle 2104_5" x="264.572" y="14.2251" width="14.3408" height="9.48341" rx="2.54433" fill="#FBFFF5"/>
<path id="Vector 1103_5" d="M282.613 20.3543V17.6943C283.192 18.0413 283.491 18.3171 283.538 18.9665C283.538 19.5448 283.307 20.0074 282.613 20.3543Z" fill="#FBFFF5" fill-opacity="0.3"/>
</g>
<text id="77_5" fill="#12140D" xml:space="preserve" style="white-space: pre" font-family="Inter" font-size="7.90284" font-weight="bold" letter-spacing="0em"><tspan x="267.339" y="21.5989">77</tspan></text>
</g>
<g id="Component 2_3">
<g clip-path="url(#clip6_404_1172)">
<mask id="path-210-inside-3_404_1172" fill="white">
<path d="M0 603.777H308.211V667H0V603.777Z"/>
</mask>
<path d="M0 603.777H308.211V667H0V603.777Z" fill="#060802"/>
<rect id="Rectangle 3643_2" x="88.5117" y="604.568" width="63.2228" height="62.4325" fill="#2F3329"/>
<text id="Home_3" fill="#515D3D" xml:space="preserve" style="white-space: pre" font-family="Red Hat Display" font-size="9.48341" letter-spacing="0em"><tspan x="37.9865" y="650.511">Home</tspan></text>
<text id="Cards_3" fill="#E8EDDF" xml:space="preserve" style="white-space: pre" font-family="Red Hat Display" font-size="9.48341" letter-spacing="0em"><tspan x="107.726" y="650.511">Cards</tspan></text>
<text id="Transactions_3" fill="#515D3D" xml:space="preserve" style="white-space: pre" font-family="Red Hat Display" font-size="9.48341" letter-spacing="0em"><tspan x="160.694" y="650.511">Transactions</tspan></text>
<text id="Profile_3" fill="#515D3D" xml:space="preserve" style="white-space: pre" font-family="Red Hat Display" font-size="9.48341" letter-spacing="0em"><tspan x="242.9" y="650.511">Profile</tspan></text>
<path id="Vector_19" d="M191.289 627.486L195.201 631.398L191.289 635.31L190.171 634.192L192.175 632.187L181.766 632.188V630.607H192.175L190.171 628.603L191.289 627.486ZM184.887 619.583L186.005 620.7L184.001 622.705H194.41V624.285H184.001L186.005 626.289L184.887 627.407L180.976 623.495L184.887 619.583V619.583Z" fill="#515D3D"/>
<path id="Vector_20" d="M257.322 631.437C260.216 631.437 262.747 632.682 264.124 634.539L262.668 635.227C261.547 633.9 259.572 633.018 257.322 633.018C255.072 633.018 253.096 633.9 251.975 635.227L250.521 634.538C251.897 632.681 254.428 631.437 257.322 631.437ZM257.322 619.583C258.37 619.583 259.375 619.999 260.116 620.74C260.857 621.481 261.273 622.486 261.273 623.534V625.905C261.273 626.924 260.88 627.902 260.176 628.638C259.471 629.373 258.51 629.809 257.493 629.853L257.322 629.857C256.274 629.857 255.269 629.44 254.528 628.699C253.787 627.958 253.37 626.953 253.37 625.905V623.534C253.37 622.516 253.763 621.537 254.468 620.802C255.172 620.066 256.133 619.631 257.15 619.587L257.322 619.583ZM257.322 621.164C256.717 621.164 256.135 621.395 255.695 621.809C255.255 622.224 254.99 622.792 254.955 623.395L254.951 623.534V625.905C254.95 626.522 255.19 627.115 255.62 627.558C256.05 628.001 256.635 628.259 257.252 628.277C257.869 628.296 258.469 628.072 258.924 627.655C259.379 627.238 259.653 626.66 259.689 626.044L259.693 625.905V623.534C259.693 622.906 259.443 622.303 258.998 621.858C258.554 621.413 257.95 621.164 257.322 621.164V621.164Z" fill="#515D3D"/>
<path id="Vector_21" d="M52.1587 632.807H56.9004V625.677L51.3684 621.374L45.8364 625.677V632.807H50.5781V628.065H52.1587V632.807ZM58.481 633.597C58.481 633.806 58.3977 634.007 58.2495 634.156C58.1013 634.304 57.9003 634.387 57.6907 634.387H45.0461C44.8365 634.387 44.6355 634.304 44.4873 634.156C44.3391 634.007 44.2559 633.806 44.2559 633.597V625.291C44.2558 625.171 44.2832 625.052 44.3361 624.944C44.389 624.835 44.4659 624.741 44.5609 624.667L50.8832 619.75C51.0219 619.642 51.1927 619.583 51.3684 619.583C51.5442 619.583 51.7149 619.642 51.8537 619.75L58.1759 624.667C58.271 624.741 58.3479 624.835 58.4008 624.944C58.4536 625.052 58.4811 625.171 58.481 625.291V633.597V633.597Z" fill="#515D3D"/>
<path id="Vector_22" d="M128.026 625.115V633.018C128.026 633.227 127.943 633.428 127.795 633.577C127.647 633.725 127.446 633.808 127.236 633.808H113.011C112.801 633.808 112.6 633.725 112.452 633.577C112.304 633.428 112.221 633.227 112.221 633.018V625.115H128.026ZM128.026 623.534H112.221V620.373C112.221 620.164 112.304 619.963 112.452 619.814C112.6 619.666 112.801 619.583 113.011 619.583H127.236C127.446 619.583 127.647 619.666 127.795 619.814C127.943 619.963 128.026 620.164 128.026 620.373V623.534ZM122.494 629.857V631.437H125.656V629.857H122.494Z" fill="#D2F988"/>
</g>
<path d="M0 604.568H308.211V602.987H0V604.568Z" fill="#1A1C15" mask="url(#path-210-inside-3_404_1172)"/>
</g>
<text id="Card Black" fill="#E8EDDF" xml:space="preserve" style="white-space: pre" font-family="M PLUS 1" font-size="12.6446" font-weight="500" letter-spacing="0em"><tspan x="24.7146" y="127.524">Card Black</tspan></text>
<g id="Group 5232">
<rect id="Rectangle 2027" width="9.98453" height="18.0572" rx="1.3293" transform="matrix(1 0 -0.423883 0.905717 48.749 158.847)" fill="url(#paint17_linear_404_1172)"/>
<rect id="Rectangle 2028" width="18.9816" height="12.7121" rx="1.3293" transform="matrix(1 0 -0.423883 0.905717 48.707 158.847)" fill="url(#paint18_linear_404_1172)"/>
</g>
<g id="Vector 14">
<path d="M258.541 176.182C260.545 171.129 260.774 168.276 258.541 163.131C258.305 162.585 258.541 162.13 258.813 162.039C259.085 161.948 259.505 162.039 259.764 162.585C262.394 168.128 262.234 171.236 259.9 176.779C259.628 177.325 259.12 177.394 258.813 177.189C258.455 176.949 258.372 176.609 258.541 176.182Z" fill="#E8EDDF"/>
<path d="M255.689 163.54C255.417 163.677 255.243 164.195 255.553 164.769C257.381 168.59 257.305 170.775 255.553 174.732C255.361 175.131 255.48 175.572 255.824 175.687C256.232 175.824 256.588 175.534 256.775 175.142C258.788 170.936 258.841 168.519 256.775 164.086C256.585 163.677 256.096 163.336 255.689 163.54Z" fill="#E8EDDF"/>
<path d="M252.971 165.315C252.564 165.451 252.492 165.904 252.7 166.407C253.782 169.018 253.952 170.483 252.7 173.094C252.456 173.549 252.375 174.032 252.836 174.186C253.296 174.34 253.628 174.097 253.787 173.777C255.392 170.579 255.032 168.786 253.787 165.588C253.68 165.315 253.379 165.178 252.971 165.315Z" fill="#E8EDDF"/>
<path d="M250.119 166.407C249.711 166.68 249.653 167.094 249.983 167.771C250.67 169.21 250.655 170.018 249.983 171.456C249.67 172.091 249.575 172.821 250.119 172.958C250.662 173.094 250.903 172.9 251.205 172.139C251.899 170.135 251.967 169.002 251.205 166.952C251.03 166.421 250.662 166.134 250.119 166.407Z" fill="#E8EDDF"/>
</g>
<text id="&#226;&#128;&#162;&#226;&#128;&#162;&#226;&#128;&#162;&#226;&#128;&#162; 4259_2" fill="#FBFFF5" xml:space="preserve" style="white-space: pre" font-family="M PLUS 1" font-size="10.6344" font-weight="600" letter-spacing="0.05em"><tspan x="41.8848" y="223.905">&#x2022;&#x2022;&#x2022;&#x2022; 4259</tspan></text>
<text id="WARLISON M SILVA_4" fill="#FBFFF5" xml:space="preserve" style="white-space: pre" font-family="M PLUS 1" font-size="10.6344" font-weight="600" letter-spacing="0.05em"><tspan x="41.8848" y="203.966">WARLISON M SILVA&#10;</tspan></text>
<circle id="Ellipse 12" opacity="0.2" cx="234.903" cy="265.724" r="15.204" fill="#E8EDDF"/>
<circle id="Ellipse 13" opacity="0.4" cx="253.433" cy="265.724" r="15.204" fill="#E8EDDF"/>
<rect id="Rectangle 2126" x="24.499" y="423.592" width="259.213" height="56.9005" rx="11.064" fill="#12140D"/>
<text id="Ajustar limite" fill="#FBFFF5" xml:space="preserve" style="white-space: pre" font-family="M PLUS 1" font-size="12.6446" font-weight="500" letter-spacing="0em"><tspan x="72.7061" y="457.863">Ajustar limite</tspan></text>
<text id="01/35" fill="#FBFFF5" xml:space="preserve" style="white-space: pre" font-family="M PLUS 1" font-size="12.6446" font-weight="500" letter-spacing="0em"><tspan x="25.2891" y="339.32">01/35</tspan></text>
<text id="Black" fill="#FBFFF5" xml:space="preserve" style="white-space: pre" font-family="M PLUS 1" font-size="12.6446" font-weight="500" letter-spacing="0em"><tspan x="25.2891" y="391.479">Black</tspan></text>
<text id="845" fill="#FBFFF5" xml:space="preserve" style="white-space: pre" font-family="M PLUS 1" font-size="12.6446" font-weight="500" letter-spacing="0em"><tspan x="161.218" y="339.32">845</tspan></text>
<path id="Vector_23" d="M263.301 451.077L259.062 446.838L260.179 445.72L266.326 451.867L260.179 458.014L259.062 456.896L263.301 452.657H253.682V451.077H263.301Z" fill="#A9C96B"/>
<path id="Vector_24" d="M58.4805 456.784V459.155H56.8999V456.784H55.3194V455.204H60.0611V456.784H58.4805ZM45.8359 456.784V459.155H44.2554V456.784H42.6748V455.204H47.4165V456.784H45.8359ZM50.5776 447.301V444.93H52.1582V447.301H53.7388V448.882H48.9971V447.301H50.5776ZM50.5776 450.462H52.1582V459.155H50.5776V450.462ZM44.2554 453.623V444.93H45.8359V453.623H44.2554ZM56.8999 453.623V444.93H58.4805V453.623H56.8999Z" fill="#A9C96B"/>
<rect id="Rectangle 2128" x="24.499" y="493.138" width="259.213" height="56.9005" rx="11.064" fill="#12140D"/>
<text id="Bloquear cart&#195;&#163;o" fill="#FBFFF5" xml:space="preserve" style="white-space: pre" font-family="M PLUS 1" font-size="12.6446" font-weight="500" letter-spacing="0em"><tspan x="72.7061" y="527.408">Bloquear cart&#xe3;o</tspan></text>
<path id="Vector_25" d="M263.301 520.622L259.062 516.383L260.179 515.266L266.326 521.412L260.179 527.559L259.062 526.442L263.301 522.203H253.682V520.622H263.301Z" fill="#A9C96B"/>
<text id="Validade" fill="#646465" xml:space="preserve" style="white-space: pre" font-family="Red Hat Display" font-size="11.064" letter-spacing="0em"><tspan x="25.301" y="319.865">Validade</tspan></text>
<text id="Copiar" fill="#E8EDDF" xml:space="preserve" style="white-space: pre" font-family="Red Hat Display" font-size="11.064" letter-spacing="0em"><tspan x="65.7733" y="257.433">Copiar</tspan></text>
<text id="Mastercard" fill="#646465" xml:space="preserve" style="white-space: pre" font-family="Red Hat Display" font-size="11.064" letter-spacing="0em"><tspan x="25.4154" y="372.814">Mastercard</tspan></text>
<text id="D&#195;&#169;bito e cr&#195;&#169;dito" fill="#FBFFF5" xml:space="preserve" style="white-space: pre" font-family="M PLUS 1" font-size="12.6446" font-weight="500" letter-spacing="0em"><tspan x="161.218" y="391.479">D&#xe9;bito e cr&#xe9;dito</tspan></text>
<text id="Fun&#195;&#167;&#195;&#163;o" fill="#646465" xml:space="preserve" style="white-space: pre" font-family="Red Hat Display" font-size="11.064" letter-spacing="0em"><tspan x="161.577" y="372.814">Fun&#xe7;&#xe3;o</tspan></text>
<text id="CVC" fill="#646465" xml:space="preserve" style="white-space: pre" font-family="Red Hat Display" font-size="11.064" letter-spacing="0em"><tspan x="161.673" y="319.865">CVC</tspan></text>
<path id="Vector_26" d="M45.8359 248.939V246.569C45.8359 246.359 45.9192 246.158 46.0674 246.01C46.2156 245.862 46.4166 245.778 46.6262 245.778H56.1096C56.3192 245.778 56.5202 245.862 56.6685 246.01C56.8167 246.158 56.8999 246.359 56.8999 246.569V257.633C56.8999 257.842 56.8167 258.043 56.6685 258.191C56.5202 258.34 56.3192 258.423 56.1096 258.423H53.7388V260.794C53.7388 261.23 53.3832 261.584 52.943 261.584H43.4706C43.3664 261.585 43.2631 261.565 43.1666 261.525C43.0701 261.486 42.9824 261.428 42.9085 261.354C42.8345 261.281 42.7758 261.194 42.7357 261.097C42.6956 261.001 42.6749 260.898 42.6748 260.794L42.6772 249.73C42.6772 249.294 43.0328 248.939 43.473 248.939H45.8359ZM44.2577 250.52L44.2554 260.003H52.1582V250.52H44.2577ZM47.4165 248.939H53.7388V256.842H55.3194V247.359H47.4165V248.939Z" fill="#E8EDDF"/>
<path id="Vector_27" d="M58.631 518.427H59.4233C59.6335 518.427 59.835 518.51 59.9836 518.658C60.1322 518.806 60.2156 519.007 60.2156 519.217V527.12C60.2156 527.329 60.1322 527.531 59.9836 527.679C59.835 527.827 59.6335 527.91 59.4233 527.91H46.7464C46.5363 527.91 46.3347 527.827 46.1862 527.679C46.0376 527.531 45.9541 527.329 45.9541 527.12V519.217C45.9541 519.007 46.0376 518.806 46.1862 518.658C46.3347 518.51 46.5363 518.427 46.7464 518.427H47.5387V517.636C47.5387 516.91 47.6822 516.191 47.9609 515.519C48.2396 514.848 48.6481 514.238 49.1631 513.725C49.6782 513.211 50.2896 512.804 50.9624 512.526C51.6353 512.248 52.3565 512.104 53.0849 512.104C53.8132 512.104 54.5344 512.248 55.2073 512.526C55.8802 512.804 56.4916 513.211 57.0066 513.725C57.5216 514.238 57.9301 514.848 58.2088 515.519C58.4876 516.191 58.631 516.91 58.631 517.636V518.427ZM47.5387 520.007V526.33H58.631V520.007H47.5387ZM52.2926 521.588H53.8772V524.749H52.2926V521.588ZM57.0464 518.427V517.636C57.0464 516.589 56.629 515.583 55.8861 514.842C55.1432 514.101 54.1355 513.685 53.0849 513.685C52.0342 513.685 51.0266 514.101 50.2836 514.842C49.5407 515.583 49.1233 516.589 49.1233 517.636V518.427H57.0464Z" fill="#A9C96B"/>
<path id="Vector_28" d="M27.5242 59.8863L31.7633 55.6472L30.6458 54.5298L24.499 60.6766L30.6458 66.8234L31.7633 65.706L27.5242 61.4669H37.1436V59.8863H27.5242Z" fill="#A9C96B"/>
<text id="Meu cart&#195;&#163;o" fill="#E8EDDF" xml:space="preserve" style="white-space: pre" font-family="M PLUS 1" font-size="14.2251" font-weight="500" letter-spacing="0em"><tspan x="115.388" y="66.7803">Meu cart&#xe3;o</tspan></text>
<path id="Vector_29" d="M275.019 68.7549C270.654 68.7549 267.116 65.2168 267.116 60.8521C267.116 56.4873 270.654 52.9492 275.019 52.9492C279.384 52.9492 282.922 56.4873 282.922 60.8521C282.922 65.2168 279.384 68.7549 275.019 68.7549ZM275.019 67.1743C276.696 67.1743 278.304 66.5082 279.49 65.3226C280.675 64.1369 281.341 62.5288 281.341 60.8521C281.341 59.1753 280.675 57.5672 279.49 56.3815C278.304 55.1959 276.696 54.5298 275.019 54.5298C273.342 54.5298 271.734 55.1959 270.549 56.3815C269.363 57.5672 268.697 59.1753 268.697 60.8521C268.697 62.5288 269.363 64.1369 270.549 65.3226C271.734 66.5082 273.342 67.1743 275.019 67.1743ZM274.229 63.2229H275.809V64.8035H274.229V63.2229ZM275.809 61.9229V62.4326H274.229V61.2472C274.229 61.0376 274.312 60.8366 274.46 60.6884C274.608 60.5402 274.809 60.4569 275.019 60.4569C275.244 60.4569 275.463 60.3931 275.653 60.273C275.843 60.1529 275.994 59.9815 276.09 59.7785C276.187 59.5756 276.223 59.3496 276.196 59.1267C276.168 58.9039 276.078 58.6935 275.936 58.5199C275.793 58.3463 275.605 58.2166 275.391 58.1461C275.178 58.0756 274.95 58.067 274.732 58.1214C274.514 58.1758 274.316 58.2909 274.161 58.4534C274.006 58.6159 273.901 58.819 273.857 59.0392L272.306 58.7286C272.402 58.2481 272.624 57.8019 272.949 57.4353C273.274 57.0688 273.691 56.7952 274.157 56.6425C274.622 56.4897 275.12 56.4634 275.599 56.566C276.078 56.6687 276.521 56.8968 276.883 57.2269C277.245 57.557 277.513 57.9773 277.659 58.4449C277.806 58.9125 277.825 59.4105 277.716 59.8882C277.607 60.3658 277.373 60.8058 277.038 61.1633C276.703 61.5208 276.279 61.7829 275.809 61.9229Z" fill="#A9C96B"/>
<rect id="Rectangle 3587" x="97" y="9" width="98" height="20" rx="10" fill="#2F3329"/>
</g>
</g>
</g>
<defs>
<filter id="filter0_f_404_1172" x="-85.5317" y="-0.181641" width="476.114" height="476.114" filterUnits="userSpaceOnUse" color-interpolation-filters="sRGB">
<feFlood flood-opacity="0" result="BackgroundImageFix"/>
<feBlend mode="normal" in="SourceGraphic" in2="BackgroundImageFix" result="shape"/>
<feGaussianBlur stdDeviation="62.5232" result="effect1_foregroundBlur_404_1172"/>
</filter>
<filter id="filter1_f_404_1172" x="-47.4172" y="31.6112" width="412.529" height="412.529" filterUnits="userSpaceOnUse" color-interpolation-filters="sRGB">
<feFlood flood-opacity="0" result="BackgroundImageFix"/>
<feBlend mode="normal" in="SourceGraphic" in2="BackgroundImageFix" result="shape"/>
<feGaussianBlur stdDeviation="55.3199" result="effect1_foregroundBlur_404_1172"/>
</filter>
<filter id="filter2_f_404_1172" x="-33.9823" y="524.749" width="376.175" height="162.799" filterUnits="userSpaceOnUse" color-interpolation-filters="sRGB">
<feFlood flood-opacity="0" result="BackgroundImageFix"/>
<feBlend mode="normal" in="SourceGraphic" in2="BackgroundImageFix" result="shape"/>
<feGaussianBlur stdDeviation="32.7968" result="effect1_foregroundBlur_404_1172"/>
</filter>
<filter id="filter3_f_404_1172" x="-61.9306" y="-12.476" width="410.968" height="410.968" filterUnits="userSpaceOnUse" color-interpolation-filters="sRGB">
<feFlood flood-opacity="0" result="BackgroundImageFix"/>
<feBlend mode="normal" in="SourceGraphic" in2="BackgroundImageFix" result="shape"/>
<feGaussianBlur stdDeviation="53.9682" result="effect1_foregroundBlur_404_1172"/>
</filter>
<filter id="filter4_f_404_1172" x="-29.0314" y="14.9667" width="356.082" height="356.083" filterUnits="userSpaceOnUse" color-interpolation-filters="sRGB">
<feFlood flood-opacity="0" result="BackgroundImageFix"/>
<feBlend mode="normal" in="SourceGraphic" in2="BackgroundImageFix" result="shape"/>
<feGaussianBlur stdDeviation="47.7506" result="effect1_foregroundBlur_404_1172"/>
</filter>
<filter id="filter5_f_404_1172" x="16.5958" y="67.1739" width="266.326" height="266.326" filterUnits="userSpaceOnUse" color-interpolation-filters="sRGB">
<feFlood flood-opacity="0" result="BackgroundImageFix"/>
<feBlend mode="normal" in="SourceGraphic" in2="BackgroundImageFix" result="shape"/>
<feGaussianBlur stdDeviation="45.4414" result="effect1_foregroundBlur_404_1172"/>
</filter>
<linearGradient id="paint0_linear_404_1172" x1="240.512" y1="114.371" x2="55.659" y2="358.958" gradientUnits="userSpaceOnUse">
<stop stop-color="#BBE768"/>
<stop offset="1" stop-color="#496022"/>
</linearGradient>
<linearGradient id="paint1_linear_404_1172" x1="249.476" y1="588.875" x2="244.284" y2="642.116" gradientUnits="userSpaceOnUse">
<stop stop-color="#A9C96B"/>
<stop offset="1" stop-color="#515D3D"/>
</linearGradient>
<linearGradient id="paint2_linear_404_1172" x1="145.743" y1="-4.33998" x2="87.9667" y2="129.689" gradientUnits="userSpaceOnUse">
<stop stop-color="#BBE768"/>
<stop offset="1" stop-color="#496022"/>
</linearGradient>
<linearGradient id="paint3_linear_404_1172" x1="257.014" y1="570.468" x2="248.76" y2="639.35" gradientUnits="userSpaceOnUse">
<stop stop-color="#BBE768"/>
<stop offset="1" stop-color="#496022"/>
</linearGradient>
<linearGradient id="paint4_linear_404_1172" x1="121.431" y1="350.841" x2="117.67" y2="380.976" gradientUnits="userSpaceOnUse">
<stop stop-color="#BBE768"/>
<stop offset="1" stop-color="#496022"/>
</linearGradient>
<linearGradient id="paint5_linear_404_1172" x1="9.73268" y1="0" x2="9.73268" y2="24.1969" gradientUnits="userSpaceOnUse">
<stop stop-color="#F3FAE6" stop-opacity="0"/>
<stop offset="1" stop-color="#F3FAE6"/>
</linearGradient>
<linearGradient id="paint6_linear_404_1172" x1="27.9985" y1="-0.978951" x2="13.5536" y2="27.56" gradientUnits="userSpaceOnUse">
<stop stop-color="#BBE768"/>
<stop offset="1" stop-color="#496022"/>
</linearGradient>
<linearGradient id="paint7_linear_404_1172" x1="242.621" y1="96.8746" x2="55.8284" y2="344.028" gradientUnits="userSpaceOnUse">
<stop stop-color="#A9C96B"/>
<stop offset="1" stop-color="#515D3D"/>
</linearGradient>
<linearGradient id="paint8_linear_404_1172" x1="216.162" y1="134.013" x2="84.9552" y2="307.618" gradientUnits="userSpaceOnUse">
<stop stop-color="#A9C96B"/>
<stop offset="1" stop-color="#515D3D"/>
</linearGradient>
<linearGradient id="paint9_linear_404_1172" x1="194.1" y1="165.931" x2="110.076" y2="277.107" gradientUnits="userSpaceOnUse">
<stop stop-color="#A9C96B"/>
<stop offset="1" stop-color="#515D3D"/>
</linearGradient>
<linearGradient id="paint10_linear_404_1172" x1="178.717" y1="187.523" x2="127.01" y2="255.939" gradientUnits="userSpaceOnUse">
<stop stop-color="#BBE768"/>
<stop offset="1" stop-color="#496022"/>
</linearGradient>
<linearGradient id="paint11_linear_404_1172" x1="255.014" y1="504.664" x2="246.76" y2="573.547" gradientUnits="userSpaceOnUse">
<stop stop-color="#BBE768"/>
<stop offset="1" stop-color="#496022"/>
</linearGradient>
<linearGradient id="paint12_linear_404_1172" x1="224.973" y1="331.084" x2="222.686" y2="361.516" gradientUnits="userSpaceOnUse">
<stop stop-color="#BBE768"/>
<stop offset="1" stop-color="#496022"/>
</linearGradient>
<linearGradient id="paint13_linear_404_1172" x1="219.501" y1="86.4025" x2="59.9412" y2="297.523" gradientUnits="userSpaceOnUse">
<stop stop-color="#BBE768"/>
<stop offset="1" stop-color="#496022"/>
</linearGradient>
<linearGradient id="paint14_linear_404_1172" x1="125.801" y1="-3.74614" x2="75.9303" y2="111.944" gradientUnits="userSpaceOnUse">
<stop stop-color="#BBE768"/>
<stop offset="1" stop-color="#496022"/>
</linearGradient>
<linearGradient id="paint15_linear_404_1172" x1="170.702" y1="216.538" x2="171.492" y2="396.723" gradientUnits="userSpaceOnUse">
<stop stop-color="#A9C96B" stop-opacity="0.5"/>
<stop offset="1" stop-color="#A9C96B" stop-opacity="0"/>
</linearGradient>
<linearGradient id="paint16_linear_404_1172" x1="255.014" y1="134.379" x2="158.728" y2="350.892" gradientUnits="userSpaceOnUse">
<stop stop-color="#384520"/>
<stop offset="1" stop-color="#0D1105"/>
</linearGradient>
<linearGradient id="paint17_linear_404_1172" x1="4.99226" y1="0" x2="4.99226" y2="18.0572" gradientUnits="userSpaceOnUse">
<stop stop-color="#F3FAE6" stop-opacity="0"/>
<stop offset="1" stop-color="#F3FAE6"/>
</linearGradient>
<linearGradient id="paint18_linear_404_1172" x1="16.5995" y1="-1.75882" x2="6.48745" y2="17.2274" gradientUnits="userSpaceOnUse">
<stop stop-color="#ECF5DC"/>
<stop offset="1" stop-color="#ECF5DC" stop-opacity="0"/>
</linearGradient>
<clipPath id="clip0_404_1172">
<rect width="309" height="667" rx="36" fill="white"/>
</clipPath>
<clipPath id="clip1_404_1172">
<rect width="309" height="667" rx="36" fill="white"/>
</clipPath>
<clipPath id="clip2_404_1172">
<path d="M0 603.777H308.211V667H0V603.777Z" fill="white"/>
</clipPath>
<clipPath id="clip3_404_1172">
<rect width="309" height="667" rx="36" fill="white"/>
</clipPath>
<clipPath id="clip4_404_1172">
<path d="M0 603.777H308.211V667H0V603.777Z" fill="white"/>
</clipPath>
<clipPath id="clip5_404_1172">
<rect width="309" height="667" rx="36" fill="white"/>
</clipPath>
<clipPath id="clip6_404_1172">
<path d="M0 603.777H308.211V667H0V603.777Z" fill="white"/>
</clipPath>
</defs>
</svg>
