<svg width="64" height="64" viewBox="0 0 64 64" fill="none" xmlns="http://www.w3.org/2000/svg">
<g id="Group 27563">
<circle id="Ellipse 2519" cx="32" cy="32" r="32" fill="#DCFD9E"/>
<path id="Vector" d="M38.3 20C42.5532 20 46 23.3784 46 28.1081C46 37.5676 35.5 42.973 32 45C28.5 42.973 18 37.5676 18 28.1081C18 23.3784 21.5 20 25.7 20C28.304 20 30.6 21.3514 32 22.7027C33.4 21.3514 35.696 20 38.3 20ZM33.3076 41.0865C34.541 40.3351 35.654 39.5878 36.6956 38.7878C40.869 35.5851 43.2 32.0851 43.2 28.1081C43.2 24.9189 41.0482 22.7027 38.3 22.7027C36.7936 22.7027 35.164 23.473 33.9796 24.6135L32 26.5243L30.0204 24.6135C28.836 23.473 27.2064 22.7027 25.7 22.7027C22.984 22.7027 20.8 24.9405 20.8 28.1081C20.8 32.0865 23.1324 35.5851 27.303 38.7878C28.346 39.5878 29.459 40.3351 30.6924 41.0851C31.111 41.3405 31.5254 41.5851 32 41.8581C32.4746 41.5851 32.889 41.3405 33.3076 41.0865Z" fill="#515D3D"/>
</g>
</svg>
