<svg width="725" height="715" viewBox="0 0 725 715" fill="none" xmlns="http://www.w3.org/2000/svg">
<g id="completo">
<g id="master-bg-card">
<text id="by Mastercard" fill="white" xml:space="preserve" style="white-space: pre" font-family="M PLUS 1" font-size="16" font-weight="500" letter-spacing="0em"><tspan x="567.867" y="70.976">by Mastercard</tspan></text>
<circle id="Ellipse 2517" opacity="0.78" cx="632.728" cy="108.5" r="21.5" fill="#D2F988"/>
<circle id="Ellipse 2518" opacity="0.6" cx="656.695" cy="108.5" r="21.5" fill="#849170"/>
</g>
<g id="Ellipse-bg" filter="url(#filter0_f_224_1525)">
<circle cx="357.695" cy="357.5" r="217.5" fill="url(#paint0_linear_224_1525)" fill-opacity="0.4"/>
</g>
<g id="card-bg-2" class="card-bg-2">
<g clip-path="url(#clip0_224_1525)">
<rect width="322.406" height="223.204" rx="13.2269" transform="matrix(-0.902585 0.430511 -0.504829 -0.863219 634.411 389.494)" fill="url(#paint1_linear_224_1525)"/>
<g id="Group 27543">
<rect id="Rectangle 3588" width="50.4276" height="322.406" transform="matrix(0.504829 0.863219 -0.902585 0.430511 521.677 196.727)" fill="#1A1C15" fill-opacity="0.4"/>
<text id="&#226;&#128;&#162;&#226;&#128;&#162;&#226;&#128;&#162;&#226;&#128;&#162; 4259" transform="matrix(0.504829 0.863219 -0.902585 0.430511 513.993 357.37)" fill="#E8EDDF" xml:space="preserve" style="white-space: pre" font-family="Quicksand" font-size="13.2269" font-weight="600" letter-spacing="0.05em"><tspan x="0" y="12.9601">&#x2022;&#x2022;&#x2022;&#x2022; 4259</tspan></text>
<circle id="Ellipse 16" opacity="0.2" cx="18.9106" cy="18.9106" r="18.9106" transform="matrix(0.504829 0.863219 -0.902585 0.430511 572.939 329.255)" fill="#E8EDDF"/>
<circle id="Ellipse 17" opacity="0.4" cx="18.9106" cy="18.9106" r="18.9106" transform="matrix(0.504829 0.863219 -0.902585 0.430511 584.574 349.15)" fill="#E8EDDF"/>
</g>
</g>
<rect x="-0.83348" y="-0.256253" width="321.222" height="222.02" rx="12.6347" transform="matrix(-0.902585 0.430511 -0.504829 -0.863219 632.696 389.376)" stroke="#4E5C37" stroke-width="1.18441"/>
</g>
<g id="card-bg-1" class="card-bg-1" filter="url(#filter1_b_224_1525)">
<g clip-path="url(#clip1_224_1525)">
<rect width="336.523" height="232.977" rx="13.8061" transform="matrix(0.83147 0.55557 -0.308685 0.951164 210.265 126.939)" fill="url(#paint2_linear_224_1525)" fill-opacity="0.75"/>
<g id="Group 27542">
<text id="Warlison M Silva" transform="matrix(0.308685 -0.951164 0.83147 0.55557 334.036 446.336)" fill="#FBFFF5" xml:space="preserve" style="white-space: pre" font-family="Quicksand" font-size="13.8061" font-weight="600" letter-spacing="0.05em"><tspan x="0" y="13.6773">Warlison M Silva</tspan></text>
<path id="Vector 1931" d="M224.808 172.244C231.073 172.197 234.582 174.664 238.798 181.592M225.979 176.706C230.479 176.68 232.451 178.242 235.306 182.938M227.15 181.166C229.83 181.005 231.093 182.093 232.89 185.001" stroke="#E8EDDF" stroke-width="1.29432" stroke-linecap="round" stroke-linejoin="round"/>
<circle id="Ellipse 14" cx="19.7386" cy="19.7386" r="19.7386" transform="matrix(0.308685 -0.951164 0.83147 0.55557 370.267 470.545)" fill="#C0C0C0" fill-opacity="0.4"/>
<circle id="Ellipse 15" cx="19.7386" cy="19.7386" r="19.7386" transform="matrix(0.308685 -0.951164 0.83147 0.55557 377.693 447.664)" fill="#FBFFF5" fill-opacity="0.5"/>
<g id="Group 27519">
<rect id="Rectangle 28" width="13.5316" height="19.7707" rx="1.72576" transform="matrix(0.308685 -0.951164 0.62223 0.906372 179.264 333.221)" fill="url(#paint3_linear_224_1525)"/>
<rect id="Rectangle 19" width="25.725" height="17.2281" rx="1.72576" transform="matrix(0.308685 -0.951164 0.62223 0.906372 174.711 326.607)" fill="url(#paint4_linear_224_1525)"/>
</g>
</g>
</g>
<rect x="0.309596" y="0.892298" width="335.338" height="231.793" rx="13.2139" transform="matrix(0.83147 0.55557 -0.308685 0.951164 210.592 126.811)" stroke="#597328" stroke-width="1.18441"/>
</g>
<g id="digital-bg-dedo">
<circle id="Ellipse 2512" cx="305.35" cy="170.763" r="33.1636" fill="#DCFD9E"/>
<path id="Vector" d="M312.156 172.206V173.393C312.156 176.679 311.359 179.853 309.858 182.701L309.585 183.199L307.489 182.044C308.881 179.576 309.661 176.812 309.747 173.934L309.756 173.393V172.206H312.156ZM304.955 168.647H307.355V173.393L307.349 173.842C307.259 177.09 306.128 180.226 304.12 182.798L303.842 183.142L301.982 181.643C303.814 179.431 304.856 176.684 304.948 173.827L304.955 173.393V168.647ZM306.155 163.901C307.747 163.901 309.273 164.526 310.399 165.639C311.524 166.751 312.156 168.26 312.156 169.833H309.756C309.756 168.889 309.376 167.984 308.701 167.317C308.026 166.649 307.11 166.274 306.155 166.274C305.2 166.274 304.284 166.649 303.609 167.317C302.934 167.984 302.554 168.889 302.554 169.833V173.393C302.554 176.044 301.57 178.546 299.829 180.484L299.574 180.757L297.836 179.119C299.241 177.667 300.062 175.759 300.147 173.752L300.154 173.393V169.833C300.154 168.26 300.786 166.751 301.912 165.639C303.037 164.526 304.564 163.901 306.155 163.901ZM306.155 159.156C309.02 159.156 311.768 160.281 313.793 162.283C315.819 164.286 316.957 167.001 316.957 169.833V173.393C316.957 175.407 316.715 177.391 316.241 179.313L316.074 179.952L313.757 179.328C314.228 177.623 314.493 175.861 314.547 174.066L314.557 173.393V169.833C314.557 168.292 314.123 166.781 313.304 165.47C312.484 164.158 311.312 163.098 309.918 162.408C308.524 161.718 306.963 161.425 305.41 161.561C303.857 161.698 302.373 162.259 301.124 163.182L299.413 161.491C301.326 159.976 303.704 159.152 306.155 159.156ZM297.715 163.169L299.427 164.86C298.397 166.216 297.815 167.853 297.758 169.547L297.754 169.833L297.758 172.206C297.758 173.535 297.442 174.82 296.844 175.975L296.657 176.319L294.572 175.143C295.028 174.354 295.294 173.473 295.347 172.553L295.358 172.206V169.833C295.351 167.411 296.183 165.059 297.715 163.169Z" fill="#65744D"/>
</g>
<g id="key-bg-pas">
<circle id="Ellipse 2513" cx="591.978" cy="282.097" r="30.7947" fill="#FBFFF5"/>
<path id="Vector_2" d="M591.978 269.01L601.818 271.183C602.084 271.242 602.322 271.389 602.493 271.6C602.663 271.811 602.756 272.073 602.756 272.344V284.227C602.756 285.402 602.464 286.559 601.906 287.595C601.347 288.631 600.54 289.514 599.556 290.166L591.978 295.186L584.4 290.166C583.416 289.514 582.609 288.631 582.05 287.595C581.492 286.56 581.2 285.403 581.2 284.228V272.344C581.2 272.073 581.293 271.811 581.463 271.6C581.634 271.389 581.871 271.242 582.137 271.183L591.978 269.01ZM591.978 271.448L583.595 273.298V284.227C583.595 285.01 583.79 285.781 584.162 286.472C584.534 287.163 585.072 287.752 585.728 288.186L591.978 292.327L598.228 288.186C598.884 287.752 599.422 287.163 599.794 286.473C600.166 285.782 600.361 285.011 600.361 284.228V273.298L591.978 271.448ZM591.978 276.149C592.505 276.149 593.018 276.321 593.436 276.64C593.855 276.959 594.156 277.406 594.292 277.912C594.429 278.418 594.394 278.955 594.192 279.439C593.99 279.923 593.633 280.327 593.177 280.589L593.175 285.667H590.78V280.589C590.324 280.327 589.967 279.923 589.765 279.439C589.563 278.955 589.528 278.419 589.664 277.913C589.801 277.407 590.102 276.96 590.52 276.641C590.938 276.322 591.451 276.149 591.978 276.149Z" fill="#849170"/>
</g>
<g id="card-princ-hi">
<circle id="Ellipse 2514" cx="217.704" cy="505.952" r="33.1636" fill="#FBFFF5"/>
<path id="Vector_3" d="M207.298 495.173H228.938C229.256 495.173 229.562 495.3 229.788 495.524C230.013 495.749 230.14 496.053 230.14 496.371V515.532C230.14 515.85 230.013 516.154 229.788 516.379C229.562 516.603 229.256 516.73 228.938 516.73H207.298C206.98 516.73 206.674 516.603 206.448 516.379C206.223 516.154 206.096 515.85 206.096 515.532V496.371C206.096 496.053 206.223 495.749 206.448 495.524C206.674 495.3 206.98 495.173 207.298 495.173V495.173ZM227.735 504.754H208.501V514.335H227.735V504.754ZM227.735 502.359V497.568H208.501V502.359H227.735ZM220.522 509.544H225.331V511.939H220.522V509.544Z" fill="#849170"/>
</g>
<g id="assis" class="assis">
<g id="Ellipse 2477" filter="url(#filter2_b_224_1525)">
<circle cx="166.774" cy="229.983" r="62.7739" fill="#E8EDDF" fill-opacity="0.05"/>
<circle cx="166.774" cy="229.983" r="62.3468" stroke="#FBFFF5" stroke-width="0.854066"/>
</g>
<g id="Ellipse 2478" filter="url(#filter3_b_224_1525)">
<circle cx="166.774" cy="229.983" r="31.1734" fill="#E8EDDF"/>
</g>
<path id="Star 25" d="M165.973 215.499C166.248 214.755 167.3 214.755 167.575 215.499L168.942 219.199C169.146 219.752 169.836 219.937 170.289 219.56L173.323 217.039C173.933 216.532 174.844 217.058 174.71 217.84L174.044 221.728C173.944 222.309 174.449 222.814 175.03 222.714L178.918 222.047C179.7 221.913 180.226 222.825 179.719 223.435L177.198 226.469C176.821 226.922 177.006 227.612 177.559 227.816L181.259 229.183C182.003 229.458 182.003 230.51 181.259 230.785L177.559 232.152C177.006 232.356 176.821 233.046 177.198 233.499L179.719 236.533C180.226 237.143 179.7 238.054 178.918 237.92L175.03 237.254C174.449 237.154 173.944 237.659 174.044 238.24L174.71 242.128C174.844 242.91 173.933 243.436 173.323 242.929L170.289 240.408C169.836 240.031 169.146 240.216 168.942 240.769L167.575 244.469C167.3 245.213 166.248 245.213 165.973 244.469L164.606 240.769C164.402 240.216 163.712 240.031 163.259 240.408L160.225 242.929C159.615 243.436 158.703 242.91 158.838 242.128L159.504 238.24C159.604 237.659 159.099 237.154 158.518 237.254L154.63 237.92C153.848 238.054 153.322 237.143 153.829 236.533L156.35 233.499C156.727 233.046 156.542 232.356 155.989 232.152L152.289 230.785C151.545 230.51 151.545 229.458 152.289 229.183L155.989 227.816C156.542 227.612 156.727 226.922 156.35 226.469L153.829 223.435C153.322 222.825 153.848 221.913 154.63 222.047L158.518 222.714C159.099 222.814 159.604 222.309 159.504 221.728L158.838 217.84C158.703 217.058 159.615 216.532 160.225 217.039L163.259 219.56C163.712 219.937 164.402 219.752 164.606 219.199L165.973 215.499Z" fill="url(#paint5_linear_224_1525)"/>
<g id="Linked Path Group">
<text id="[Copy] CURSO ONLINE &#226;&#128;&#162; criatividade &#226;&#128;&#162;" transform="translate(223.284 231.763) rotate(98.8247)" fill="#E7E4F2" xml:space="preserve" style="white-space: pre" font-family="Oxanium" font-size="13.6651" font-weight="300" letter-spacing="0.16em"><tspan x="0" y="12.9629">M</tspan></text>
<text id="[Copy] CURSO ONLINE &#226;&#128;&#162; criatividade &#226;&#128;&#162;_2" transform="translate(220.099 248.481) rotate(114.635)" fill="#E7E4F2" xml:space="preserve" style="white-space: pre" font-family="Oxanium" font-size="13.6651" font-weight="300" letter-spacing="0.16em"><tspan x="0" y="12.9629">A</tspan></text>
<text id="[Copy] CURSO ONLINE &#226;&#128;&#162; criatividade &#226;&#128;&#162;_3" transform="translate(214.348 260.326) rotate(127.706)" fill="#E7E4F2" xml:space="preserve" style="white-space: pre" font-family="Oxanium" font-size="13.6651" font-weight="300" letter-spacing="0.16em"><tspan x="0" y="12.9629">T</tspan></text>
<text id="[Copy] CURSO ONLINE &#226;&#128;&#162; criatividade &#226;&#128;&#162;_4" transform="translate(206.688 269.87) rotate(140.207)" fill="#E7E4F2" xml:space="preserve" style="white-space: pre" font-family="Oxanium" font-size="13.6651" font-weight="300" letter-spacing="0.16em"><tspan x="0" y="12.9629">E</tspan></text>
<text id="[Copy] CURSO ONLINE &#226;&#128;&#162; criatividade &#226;&#128;&#162;_5" transform="translate(197.095 277.604) rotate(153.237)" fill="#E7E4F2" xml:space="preserve" style="white-space: pre" font-family="Oxanium" font-size="13.6651" font-weight="300" letter-spacing="0.16em"><tspan x="0" y="12.9629">R</tspan></text>
<text id="[Copy] CURSO ONLINE &#226;&#128;&#162; criatividade &#226;&#128;&#162;_6" transform="translate(185.534 282.984) rotate(163.752)" fill="#E7E4F2" xml:space="preserve" style="white-space: pre" font-family="Oxanium" font-size="13.6651" font-weight="300" letter-spacing="0.16em"><tspan x="0" y="12.9629">I</tspan></text>
<text id="[Copy] CURSO ONLINE &#226;&#128;&#162; criatividade &#226;&#128;&#162;_7" transform="translate(178.197 285.185) rotate(174.256)" fill="#E7E4F2" xml:space="preserve" style="white-space: pre" font-family="Oxanium" font-size="13.6651" font-weight="300" letter-spacing="0.16em"><tspan x="0" y="12.9629">A</tspan></text>
<text id="[Copy] CURSO ONLINE &#226;&#128;&#162; criatividade &#226;&#128;&#162;_8" transform="translate(164.85 286.193) rotate(-172.494)" fill="#E7E4F2" xml:space="preserve" style="white-space: pre" font-family="Oxanium" font-size="13.6651" font-weight="300" letter-spacing="0.16em"><tspan x="0" y="12.9629">L</tspan></text>
<text id="[Copy] CURSO ONLINE &#226;&#128;&#162; criatividade &#226;&#128;&#162;_9" transform="translate(145.989 282.084) rotate(-152.6)" fill="#E7E4F2" xml:space="preserve" style="white-space: pre" font-family="Oxanium" font-size="13.6651" font-weight="300" letter-spacing="0.16em"><tspan x="0" y="12.9629">T</tspan></text>
<text id="[Copy] CURSO ONLINE &#226;&#128;&#162; criatividade &#226;&#128;&#162;_10" transform="translate(135.242 276.235) rotate(-139.999)" fill="#E7E4F2" xml:space="preserve" style="white-space: pre" font-family="Oxanium" font-size="13.6651" font-weight="300" letter-spacing="0.16em"><tspan x="0" y="12.9629">E</tspan></text>
<text id="[Copy] CURSO ONLINE &#226;&#128;&#162; criatividade &#226;&#128;&#162;_11" transform="translate(126.038 268.208) rotate(-127.497)" fill="#E7E4F2" xml:space="preserve" style="white-space: pre" font-family="Oxanium" font-size="13.6651" font-weight="300" letter-spacing="0.16em"><tspan x="0" y="12.9629">S</tspan></text>
<text id="[Copy] CURSO ONLINE &#226;&#128;&#162; criatividade &#226;&#128;&#162;_12" transform="translate(118.756 258.336) rotate(-114.849)" fill="#E7E4F2" xml:space="preserve" style="white-space: pre" font-family="Oxanium" font-size="13.6651" font-weight="300" letter-spacing="0.16em"><tspan x="0" y="12.9629">T</tspan></text>
<text id="[Copy] CURSO ONLINE &#226;&#128;&#162; criatividade &#226;&#128;&#162;_13" transform="translate(113.755 247.072) rotate(-101.674)" fill="#E7E4F2" xml:space="preserve" style="white-space: pre" font-family="Oxanium" font-size="13.6651" font-weight="300" letter-spacing="0.16em"><tspan x="0" y="12.9629">A</tspan></text>
<text id="[Copy] CURSO ONLINE &#226;&#128;&#162; criatividade &#226;&#128;&#162;_14" transform="translate(111.266 233.695) rotate(-87.3467)" fill="#E7E4F2" xml:space="preserve" style="white-space: pre" font-family="Oxanium" font-size="13.6651" font-weight="300" letter-spacing="0.16em"><tspan x="0" y="12.9629">D</tspan></text>
<text id="[Copy] CURSO ONLINE &#226;&#128;&#162; criatividade &#226;&#128;&#162;_15" transform="translate(112.219 219.45) rotate(-72.6685)" fill="#E7E4F2" xml:space="preserve" style="white-space: pre" font-family="Oxanium" font-size="13.6651" font-weight="300" letter-spacing="0.16em"><tspan x="0" y="12.9629">O</tspan></text>
<text id="[Copy] CURSO ONLINE &#226;&#128;&#162; criatividade &#226;&#128;&#162;_16" transform="translate(120.132 200.265) rotate(-53.3395)" fill="#E7E4F2" xml:space="preserve" style="white-space: pre" font-family="Oxanium" font-size="13.6651" font-weight="300" letter-spacing="0.16em"><tspan x="0" y="12.9629">&#x2022;</tspan></text>
<text id="[Copy] CURSO ONLINE &#226;&#128;&#162; criatividade &#226;&#128;&#162;_17" transform="translate(130.952 187.666) rotate(-34.5667)" fill="#E7E4F2" xml:space="preserve" style="white-space: pre" font-family="Oxanium" font-size="13.6651" font-weight="300" letter-spacing="0.16em"><tspan x="0" y="12.9629">A</tspan></text>
<text id="[Copy] CURSO ONLINE &#226;&#128;&#162; criatividade &#226;&#128;&#162;_18" transform="translate(142.206 180.243) rotate(-20.7822)" fill="#E7E4F2" xml:space="preserve" style="white-space: pre" font-family="Oxanium" font-size="13.6651" font-weight="300" letter-spacing="0.16em"><tspan x="0" y="12.9629">P</tspan></text>
<text id="[Copy] CURSO ONLINE &#226;&#128;&#162; criatividade &#226;&#128;&#162;_19" transform="translate(154.357 175.839) rotate(-7.28563)" fill="#E7E4F2" xml:space="preserve" style="white-space: pre" font-family="Oxanium" font-size="13.6651" font-weight="300" letter-spacing="0.16em"><tspan x="0" y="12.9629">R</tspan></text>
<text id="[Copy] CURSO ONLINE &#226;&#128;&#162; criatividade &#226;&#128;&#162;_20" transform="translate(168.058 174.342) rotate(7.06552)" fill="#E7E4F2" xml:space="preserve" style="white-space: pre" font-family="Oxanium" font-size="13.6651" font-weight="300" letter-spacing="0.16em"><tspan x="0" y="12.9629">O</tspan></text>
<text id="[Copy] CURSO ONLINE &#226;&#128;&#162; criatividade &#226;&#128;&#162;_21" transform="translate(182 176.362) rotate(21.2119)" fill="#E7E4F2" xml:space="preserve" style="white-space: pre" font-family="Oxanium" font-size="13.6651" font-weight="300" letter-spacing="0.16em"><tspan x="0" y="12.9629">V</tspan></text>
<text id="[Copy] CURSO ONLINE &#226;&#128;&#162; criatividade &#226;&#128;&#162;_22" transform="translate(194.473 181.494) rotate(34.9859)" fill="#E7E4F2" xml:space="preserve" style="white-space: pre" font-family="Oxanium" font-size="13.6651" font-weight="300" letter-spacing="0.16em"><tspan x="0" y="12.9629">A</tspan></text>
<text id="[Copy] CURSO ONLINE &#226;&#128;&#162; criatividade &#226;&#128;&#162;_23" transform="translate(205.184 189.224) rotate(48.9566)" fill="#E7E4F2" xml:space="preserve" style="white-space: pre" font-family="Oxanium" font-size="13.6651" font-weight="300" letter-spacing="0.16em"><tspan x="0" y="12.9629">D</tspan></text>
<text id="[Copy] CURSO ONLINE &#226;&#128;&#162; criatividade &#226;&#128;&#162;_24" transform="translate(214.411 200.275) rotate(63.6616)" fill="#E7E4F2" xml:space="preserve" style="white-space: pre" font-family="Oxanium" font-size="13.6651" font-weight="300" letter-spacing="0.16em"><tspan x="0" y="12.9629">O</tspan></text>
<text id="[Copy] CURSO ONLINE &#226;&#128;&#162; criatividade &#226;&#128;&#162;_25" transform="translate(221.974 219.817) rotate(83.1546)" fill="#E7E4F2" xml:space="preserve" style="white-space: pre" font-family="Oxanium" font-size="13.6651" font-weight="300" letter-spacing="0.16em"><tspan x="0" y="12.9629">&#x2022;</tspan></text>
</g>
</g>
<g id="informativo">
<rect id="Rectangle 3611" x="490.119" y="502.398" width="234.514" height="85.2777" rx="21.3194" fill="#FBFFF5"/>
<text id="R$ 465,00" fill="#515D3D" xml:space="preserve" style="white-space: pre" font-family="M PLUS 1" font-size="21.3194" font-weight="500" letter-spacing="0em"><tspan x="580.134" y="564.595">R$ 465,00</tspan></text>
<text id="Investimento" fill="#7C7C7D" xml:space="preserve" style="white-space: pre" font-family="Red Hat Display" font-size="16.5818" letter-spacing="0em"><tspan x="580.134" y="535.023">Investimento</tspan></text>
<circle id="Ellipse 2486" cx="535.126" cy="545.037" r="28.4259" fill="#A9C96B" fill-opacity="0.4"/>
<path id="Vector_4" d="M528.735 536.747V551.486H543.93V553.328H526.835V536.747H528.735ZM543.259 539.78L544.602 541.083L539.182 546.34L536.333 543.577L532.255 547.531L530.913 546.229L536.333 540.971L539.182 543.734L543.259 539.78V539.78Z" fill="#65744D"/>
</g>
</g>
<defs>
<filter id="filter0_f_224_1525" x="0.195312" y="0" width="715" height="715" filterUnits="userSpaceOnUse" color-interpolation-filters="sRGB">
<feFlood flood-opacity="0" result="BackgroundImageFix"/>
<feBlend mode="normal" in="SourceGraphic" in2="BackgroundImageFix" result="shape"/>
<feGaussianBlur stdDeviation="70" result="effect1_foregroundBlur_224_1525"/>
</filter>
<filter id="filter1_b_224_1525" x="128.873" y="117.464" width="370.676" height="427.512" filterUnits="userSpaceOnUse" color-interpolation-filters="sRGB">
<feFlood flood-opacity="0" result="BackgroundImageFix"/>
<feGaussianBlur in="BackgroundImageFix" stdDeviation="4.73765"/>
<feComposite in2="SourceAlpha" operator="in" result="effect1_backgroundBlur_224_1525"/>
<feBlend mode="normal" in="SourceGraphic" in2="effect1_backgroundBlur_224_1525" result="shape"/>
</filter>
<filter id="filter2_b_224_1525" x="83.5024" y="146.712" width="166.543" height="166.543" filterUnits="userSpaceOnUse" color-interpolation-filters="sRGB">
<feFlood flood-opacity="0" result="BackgroundImageFix"/>
<feGaussianBlur in="BackgroundImageFix" stdDeviation="10.2488"/>
<feComposite in2="SourceAlpha" operator="in" result="effect1_backgroundBlur_224_1525"/>
<feBlend mode="normal" in="SourceGraphic" in2="effect1_backgroundBlur_224_1525" result="shape"/>
</filter>
<filter id="filter3_b_224_1525" x="115.103" y="178.312" width="103.342" height="103.342" filterUnits="userSpaceOnUse" color-interpolation-filters="sRGB">
<feFlood flood-opacity="0" result="BackgroundImageFix"/>
<feGaussianBlur in="BackgroundImageFix" stdDeviation="10.2488"/>
<feComposite in2="SourceAlpha" operator="in" result="effect1_backgroundBlur_224_1525"/>
<feBlend mode="normal" in="SourceGraphic" in2="effect1_backgroundBlur_224_1525" result="shape"/>
</filter>
<linearGradient id="paint0_linear_224_1525" x1="527.035" y1="119.804" x2="171.267" y2="590.536" gradientUnits="userSpaceOnUse">
<stop stop-color="#BBE768"/>
<stop offset="1" stop-color="#496022"/>
</linearGradient>
<linearGradient id="paint1_linear_224_1525" x1="286.711" y1="-10.363" x2="130.821" y2="287.576" gradientUnits="userSpaceOnUse">
<stop stop-color="#3E4F1D"/>
<stop offset="1" stop-color="#596643"/>
</linearGradient>
<linearGradient id="paint2_linear_224_1525" x1="299.265" y1="-10.8168" x2="136.549" y2="300.167" gradientUnits="userSpaceOnUse">
<stop stop-color="#BBE768"/>
<stop offset="1" stop-color="#496022"/>
</linearGradient>
<linearGradient id="paint3_linear_224_1525" x1="6.76579" y1="0" x2="6.76579" y2="19.7707" gradientUnits="userSpaceOnUse">
<stop stop-color="#F3FAE6" stop-opacity="0"/>
<stop offset="1" stop-color="#F3FAE6"/>
</linearGradient>
<linearGradient id="paint4_linear_224_1525" x1="22.4966" y1="-2.38365" x2="8.79216" y2="23.3475" gradientUnits="userSpaceOnUse">
<stop stop-color="#ECF5DC"/>
<stop offset="1" stop-color="#ECF5DC" stop-opacity="0"/>
</linearGradient>
<linearGradient id="paint5_linear_224_1525" x1="179.74" y1="211.783" x2="152.499" y2="247.828" gradientUnits="userSpaceOnUse">
<stop stop-color="#BBE768"/>
<stop offset="1" stop-color="#496022"/>
</linearGradient>
<clipPath id="clip0_224_1525">
<rect width="322.406" height="223.204" rx="13.2269" transform="matrix(-0.902585 0.430511 -0.504829 -0.863219 634.411 389.494)" fill="white"/>
</clipPath>
<clipPath id="clip1_224_1525">
<rect width="336.523" height="232.977" rx="13.8061" transform="matrix(0.83147 0.55557 -0.308685 0.951164 210.265 126.939)" fill="white"/>
</clipPath>
</defs>
</svg>
