<svg width="56" height="56" viewBox="0 0 56 56" fill="none" xmlns="http://www.w3.org/2000/svg">
<g id="search-card-bg">
<rect id="search-card-bg_2" width="56" height="56" rx="8" fill="url(#paint0_linear_305_667)"/>
<path id="Vector" d="M19 28.6539H25V26.6539H19V17.4999C19 17.413 19.0227 17.3276 19.0657 17.2522C19.1088 17.1767 19.1708 17.1138 19.2456 17.0696C19.3204 17.0254 19.4054 17.0014 19.4923 17.0001C19.5791 16.9987 19.6649 17.02 19.741 17.0619L38.203 27.2159C38.2814 27.2591 38.3468 27.3225 38.3923 27.3995C38.4378 27.4766 38.4618 27.5644 38.4618 27.6539C38.4618 27.7434 38.4378 27.8313 38.3923 27.9083C38.3468 27.9853 38.2814 28.0488 38.203 28.0919L19.741 38.2459C19.6649 38.2878 19.5791 38.3091 19.4923 38.3078C19.4054 38.3064 19.3204 38.2825 19.2456 38.2383C19.1708 38.194 19.1088 38.1311 19.0657 38.0556C19.0227 37.9802 19 37.8948 19 37.8079V28.6539Z" fill="#FBFFF5"/>
</g>
<defs>
<linearGradient id="paint0_linear_305_667" x1="49.8" y1="-2.6" x2="4" y2="58" gradientUnits="userSpaceOnUse">
<stop stop-color="#BBE768"/>
<stop offset="1" stop-color="#496022"/>
</linearGradient>
</defs>
</svg>
